<?xml version="1.0" encoding="UTF-8" standalone="no"?><svg xmlns="http://www.w3.org/2000/svg" xmlns:xlink="http://www.w3.org/1999/xlink" clip-rule="evenodd" stroke-miterlimit="4.00" viewBox="0 0 720 405"><desc>SVG generated by Keynote</desc><defs></defs><g transform="matrix(1.00, 0.00, -0.00, -1.00, 0.0, 405.0)"><path d="M 0.0 405.0 L 720.0 405.0 L 720.0 0.0 L 0.0 0.0 Z M 0.0 405.0 " fill="#00517B"></path><path d="M 0.0 0.0 L 33.4 0.0 " fill="none" stroke="#039BE4" stroke-width="3.00" stroke-linejoin="round" transform="matrix(1.00, 0.00, 0.00, -1.00, 38.8, 305.8)"></path><text xml:space="preserve" font-family="Helvetica" font-size="30.0" fill="#FFFFFF" transform="matrix(1.00, 0.00, -0.00, -1.00, 38.0, 329.0)">L</text><text xml:space="preserve" font-family="Helvetica" font-size="30.0" fill="#FFFFFF" transform="matrix(1.00, 0.00, -0.00, -1.00, 54.7, 329.0)">e</text><text xml:space="preserve" font-family="Helvetica" font-size="30.0" fill="#FFFFFF" transform="matrix(1.00, 0.00, -0.00, -1.00, 71.4, 329.0)">t</text><text xml:space="preserve" font-family="Helvetica" font-size="30.0" fill="#FFFFFF" transform="matrix(1.00, 0.00, -0.00, -1.00, 79.7, 329.0)">’</text><text xml:space="preserve" font-family="Helvetica" font-size="30.0" fill="#FFFFFF" transform="matrix(1.00, 0.00, -0.00, -1.00, 85.9, 329.0)">s</text><text xml:space="preserve" font-family="Helvetica" font-size="30.0" fill="#FFFFFF" transform="matrix(1.00, 0.00, -0.00, -1.00, 100.9, 329.0)"> </text><text xml:space="preserve" font-family="Helvetica" font-size="30.0" fill="#FFFFFF" transform="matrix(1.00, 0.00, -0.00, -1.00, 109.2, 329.0)">h</text><text xml:space="preserve" font-family="Helvetica" font-size="30.0" fill="#FFFFFF" transform="matrix(1.00, 0.00, -0.00, -1.00, 125.9, 329.0)">a</text><text xml:space="preserve" font-family="Helvetica" font-size="30.0" fill="#FFFFFF" transform="matrix(1.00, 0.00, -0.00, -1.00, 142.6, 329.0)">v</text><text xml:space="preserve" font-family="Helvetica" font-size="30.0" fill="#FFFFFF" transform="matrix(1.00, 0.00, -0.00, -1.00, 157.6, 329.0)">e</text><text xml:space="preserve" font-family="Helvetica" font-size="30.0" fill="#FFFFFF" transform="matrix(1.00, 0.00, -0.00, -1.00, 174.3, 329.0)"> </text><text xml:space="preserve" font-family="Helvetica" font-size="30.0" fill="#FFFFFF" transform="matrix(1.00, 0.00, -0.00, -1.00, 182.6, 329.0)">a</text><text xml:space="preserve" font-family="Helvetica" font-size="30.0" fill="#FFFFFF" transform="matrix(1.00, 0.00, -0.00, -1.00, 199.3, 329.0)"> </text><text xml:space="preserve" font-family="Helvetica" font-size="30.0" fill="#FFFFFF" transform="matrix(1.00, 0.00, -0.00, -1.00, 207.6, 329.0)">l</text><text xml:space="preserve" font-family="Helvetica" font-size="30.0" fill="#FFFFFF" transform="matrix(1.00, 0.00, -0.00, -1.00, 214.3, 329.0)">o</text><text xml:space="preserve" font-family="Helvetica" font-size="30.0" fill="#FFFFFF" transform="matrix(1.00, 0.00, -0.00, -1.00, 231.0, 329.0)">o</text><text xml:space="preserve" font-family="Helvetica" font-size="30.0" fill="#FFFFFF" transform="matrix(1.00, 0.00, -0.00, -1.00, 247.7, 329.0)">k</text><text xml:space="preserve" font-family="Helvetica" font-size="30.0" fill="#FFFFFF" transform="matrix(1.00, 0.00, -0.00, -1.00, 262.7, 329.0)">!</text><text xml:space="preserve" font-family="Helvetica" font-size="18.0" fill="#8BC34A" transform="matrix(1.00, 0.00, -0.00, -1.00, 38.0, 263.0)">J</text><text xml:space="preserve" font-family="Helvetica" font-size="18.0" fill="#8BC34A" transform="matrix(1.00, 0.00, -0.00, -1.00, 47.0, 263.0)">O</text><text xml:space="preserve" font-family="Helvetica" font-size="18.0" fill="#8BC34A" transform="matrix(1.00, 0.00, -0.00, -1.00, 61.0, 263.0)">B</text><text xml:space="preserve" font-family="Helvetica" font-size="18.0" fill="#8BC34A" transform="matrix(1.00, 0.00, -0.00, -1.00, 73.0, 263.0)">M</text><text xml:space="preserve" font-family="Helvetica" font-size="18.0" fill="#8BC34A" transform="matrix(1.00, 0.00, -0.00, -1.00, 88.0, 263.0)">A</text><text xml:space="preserve" font-family="Helvetica" font-size="18.0" fill="#8BC34A" transform="matrix(1.00, 0.00, -0.00, -1.00, 100.0, 263.0)">S</text><text xml:space="preserve" font-family="Helvetica" font-size="18.0" fill="#8BC34A" transform="matrix(1.00, 0.00, -0.00, -1.00, 112.0, 263.0)">H</text><text xml:space="preserve" font-family="Helvetica" font-size="18.0" fill="#8BC34A" transform="matrix(1.00, 0.00, -0.00, -1.00, 125.0, 263.0)"> </text><text xml:space="preserve" font-family="Helvetica" font-size="18.0" fill="#8BC34A" transform="matrix(1.00, 0.00, -0.00, -1.00, 129.0, 263.0)">A</text><text xml:space="preserve" font-family="Helvetica" font-size="18.0" fill="#8BC34A" transform="matrix(1.00, 0.00, -0.00, -1.00, 141.0, 263.0)">P</text><text xml:space="preserve" font-family="Helvetica" font-size="18.0" fill="#8BC34A" transform="matrix(1.00, 0.00, -0.00, -1.00, 153.0, 263.0)">P</text><g><clipPath id="clip-5"><path d="M 36.7 259.8 L 164.8 259.8 L 164.8 262.7 L 36.7 262.7 Z M 36.7 259.8 "></path></clipPath><g clip-path="url(#clip-5)"><path d="M 7.2 26.4 L 134.2 26.4 " fill="none" stroke="#8BC34A" stroke-width="0.89" stroke-miterlimit="0.00" transform="matrix(1.00, 0.00, 0.00, -1.00, 30.5, 287.7)"></path></g></g></g></svg>