<?xml version="1.0" encoding="UTF-8" standalone="no"?><svg xmlns="http://www.w3.org/2000/svg" xmlns:xlink="http://www.w3.org/1999/xlink" clip-rule="evenodd" stroke-miterlimit="4.00" viewBox="0 0 720 405"><desc>SVG generated by Keynote</desc><defs></defs><g transform="matrix(1.00, 0.00, -0.00, -1.00, 0.0, 405.0)"><path d="M 0.0 405.0 L 720.0 405.0 L 720.0 0.0 L 0.0 0.0 Z M 0.0 405.0 " fill="#00517B"></path><path d="M 0.0 0.0 L 33.4 0.0 " fill="none" stroke="#039BE4" stroke-width="3.00" stroke-linejoin="round" transform="matrix(1.00, 0.00, 0.00, -1.00, 38.8, 305.8)"></path><text xml:space="preserve" font-family="Helvetica" font-size="30.0" fill="#FFFFFF" transform="matrix(1.00, 0.00, -0.00, -1.00, 38.0, 329.0)">W</text><text xml:space="preserve" font-family="Helvetica" font-size="30.0" fill="#FFFFFF" transform="matrix(1.00, 0.00, -0.00, -1.00, 65.2, 329.0)">a</text><text xml:space="preserve" font-family="Helvetica" font-size="30.0" fill="#FFFFFF" transform="matrix(1.00, 0.00, -0.00, -1.00, 81.9, 329.0)">n</text><text xml:space="preserve" font-family="Helvetica" font-size="30.0" fill="#FFFFFF" transform="matrix(1.00, 0.00, -0.00, -1.00, 98.6, 329.0)">t</text><text xml:space="preserve" font-family="Helvetica" font-size="30.0" fill="#FFFFFF" transform="matrix(1.00, 0.00, -0.00, -1.00, 106.9, 329.0)"> </text><text xml:space="preserve" font-family="Helvetica" font-size="30.0" fill="#FFFFFF" transform="matrix(1.00, 0.00, -0.00, -1.00, 115.3, 329.0)">“</text><text xml:space="preserve" font-family="Helvetica" font-size="30.0" fill="#FFFFFF" transform="matrix(1.00, 0.00, -0.00, -1.00, 125.2, 329.0)">m</text><text xml:space="preserve" font-family="Helvetica" font-size="30.0" fill="#FFFFFF" transform="matrix(1.00, 0.00, -0.00, -1.00, 150.2, 329.0)">o</text><text xml:space="preserve" font-family="Helvetica" font-size="30.0" fill="#FFFFFF" transform="matrix(1.00, 0.00, -0.00, -1.00, 166.9, 329.0)">r</text><text xml:space="preserve" font-family="Helvetica" font-size="30.0" fill="#FFFFFF" transform="matrix(1.00, 0.00, -0.00, -1.00, 176.9, 329.0)">e</text><text xml:space="preserve" font-family="Helvetica" font-size="30.0" fill="#FFFFFF" transform="matrix(1.00, 0.00, -0.00, -1.00, 193.6, 329.0)"> </text><text xml:space="preserve" font-family="Helvetica" font-size="30.0" fill="#FFFFFF" transform="matrix(1.00, 0.00, -0.00, -1.00, 201.9, 329.0)">l</text><text xml:space="preserve" font-family="Helvetica" font-size="30.0" fill="#FFFFFF" transform="matrix(1.00, 0.00, -0.00, -1.00, 208.6, 329.0)">i</text><text xml:space="preserve" font-family="Helvetica" font-size="30.0" fill="#FFFFFF" transform="matrix(1.00, 0.00, -0.00, -1.00, 215.3, 329.0)">k</text><text xml:space="preserve" font-family="Helvetica" font-size="30.0" fill="#FFFFFF" transform="matrix(1.00, 0.00, -0.00, -1.00, 230.3, 329.0)">e</text><text xml:space="preserve" font-family="Helvetica" font-size="30.0" fill="#FFFFFF" transform="matrix(1.00, 0.00, -0.00, -1.00, 247.0, 329.0)"> </text><text xml:space="preserve" font-family="Helvetica" font-size="30.0" fill="#FFFFFF" transform="matrix(1.00, 0.00, -0.00, -1.00, 255.3, 329.0)">t</text><text xml:space="preserve" font-family="Helvetica" font-size="30.0" fill="#FFFFFF" transform="matrix(1.00, 0.00, -0.00, -1.00, 263.6, 329.0)">h</text><text xml:space="preserve" font-family="Helvetica" font-size="30.0" fill="#FFFFFF" transform="matrix(1.00, 0.00, -0.00, -1.00, 280.3, 329.0)">i</text><text xml:space="preserve" font-family="Helvetica" font-size="30.0" fill="#FFFFFF" transform="matrix(1.00, 0.00, -0.00, -1.00, 287.0, 329.0)">s</text><text xml:space="preserve" font-family="Helvetica" font-size="30.0" fill="#FFFFFF" transform="matrix(1.00, 0.00, -0.00, -1.00, 302.0, 329.0)">”</text><text xml:space="preserve" font-family="Helvetica" font-size="30.0" fill="#FFFFFF" transform="matrix(1.00, 0.00, -0.00, -1.00, 312.0, 329.0)"> </text><text xml:space="preserve" font-family="Helvetica" font-size="30.0" fill="#FFFFFF" transform="matrix(1.00, 0.00, -0.00, -1.00, 320.3, 329.0)">f</text><text xml:space="preserve" font-family="Helvetica" font-size="30.0" fill="#FFFFFF" transform="matrix(1.00, 0.00, -0.00, -1.00, 328.6, 329.0)">e</text><text xml:space="preserve" font-family="Helvetica" font-size="30.0" fill="#FFFFFF" transform="matrix(1.00, 0.00, -0.00, -1.00, 345.3, 329.0)">a</text><text xml:space="preserve" font-family="Helvetica" font-size="30.0" fill="#FFFFFF" transform="matrix(1.00, 0.00, -0.00, -1.00, 362.0, 329.0)">t</text><text xml:space="preserve" font-family="Helvetica" font-size="30.0" fill="#FFFFFF" transform="matrix(1.00, 0.00, -0.00, -1.00, 370.3, 329.0)">u</text><text xml:space="preserve" font-family="Helvetica" font-size="30.0" fill="#FFFFFF" transform="matrix(1.00, 0.00, -0.00, -1.00, 387.0, 329.0)">r</text><text xml:space="preserve" font-family="Helvetica" font-size="30.0" fill="#FFFFFF" transform="matrix(1.00, 0.00, -0.00, -1.00, 397.0, 329.0)">e</text><image xlink:href="8C29CFFB44C98BDCBB8C7A33DAFE28E0.png" width="343.00" height="246.00" transform="matrix(1.00, 0.00, -0.00, -1.00, 17.0, 296.0)"></image><image xlink:href="AFDC877879F25CBFE304206639A92B61.png" width="263.00" height="282.00" transform="matrix(1.00, 0.00, -0.00, -1.00, 440.0, 307.0)"></image></g></svg>