<?xml version="1.0" encoding="UTF-8" standalone="no"?><svg xmlns="http://www.w3.org/2000/svg" xmlns:xlink="http://www.w3.org/1999/xlink" clip-rule="evenodd" stroke-miterlimit="4.00" viewBox="0 0 222 67"><desc>SVG generated by Keynote</desc><defs></defs><g transform="matrix(1.00, 0.00, -0.00, -1.00, 0.0, 67.0)"><text xml:space="preserve" font-family="Helvetica" font-size="17.5" fill="#FFFFFF" transform="matrix(1.00, 0.00, -0.00, -1.00, 1.0, 52.0)">‘</text><text xml:space="preserve" font-family="Helvetica" font-size="17.5" fill="#FFFFFF" transform="matrix(1.00, 0.00, -0.00, -1.00, 4.9, 52.0)">D</text><text xml:space="preserve" font-family="Helvetica" font-size="17.5" fill="#FFFFFF" transform="matrix(1.00, 0.00, -0.00, -1.00, 17.5, 52.0)">a</text><text xml:space="preserve" font-family="Helvetica" font-size="17.5" fill="#FFFFFF" transform="matrix(1.00, 0.00, -0.00, -1.00, 27.2, 52.0)">t</text><text xml:space="preserve" font-family="Helvetica" font-size="17.5" fill="#FFFFFF" transform="matrix(1.00, 0.00, -0.00, -1.00, 32.1, 52.0)">a</text><text xml:space="preserve" font-family="Helvetica" font-size="17.5" fill="#FFFFFF" transform="matrix(1.00, 0.00, -0.00, -1.00, 41.8, 52.0)"> </text><text xml:space="preserve" font-family="Helvetica" font-size="17.5" fill="#FFFFFF" transform="matrix(1.00, 0.00, -0.00, -1.00, 46.6, 52.0)">S</text><text xml:space="preserve" font-family="Helvetica" font-size="17.5" fill="#FFFFFF" transform="matrix(1.00, 0.00, -0.00, -1.00, 58.3, 52.0)">c</text><text xml:space="preserve" font-family="Helvetica" font-size="17.5" fill="#FFFFFF" transform="matrix(1.00, 0.00, -0.00, -1.00, 67.0, 52.0)">i</text><text xml:space="preserve" font-family="Helvetica" font-size="17.5" fill="#FFFFFF" transform="matrix(1.00, 0.00, -0.00, -1.00, 70.9, 52.0)">e</text><text xml:space="preserve" font-family="Helvetica" font-size="17.5" fill="#FFFFFF" transform="matrix(1.00, 0.00, -0.00, -1.00, 80.6, 52.0)">n</text><text xml:space="preserve" font-family="Helvetica" font-size="17.5" fill="#FFFFFF" transform="matrix(1.00, 0.00, -0.00, -1.00, 90.3, 52.0)">t</text><text xml:space="preserve" font-family="Helvetica" font-size="17.5" fill="#FFFFFF" transform="matrix(1.00, 0.00, -0.00, -1.00, 95.2, 52.0)">i</text><text xml:space="preserve" font-family="Helvetica" font-size="17.5" fill="#FFFFFF" transform="matrix(1.00, 0.00, -0.00, -1.00, 99.0, 52.0)">s</text><text xml:space="preserve" font-family="Helvetica" font-size="17.5" fill="#FFFFFF" transform="matrix(1.00, 0.00, -0.00, -1.00, 107.8, 52.0)">t</text><text xml:space="preserve" font-family="Helvetica" font-size="17.5" fill="#FFFFFF" transform="matrix(1.00, 0.00, -0.00, -1.00, 112.6, 52.0)">’</text><text xml:space="preserve" font-family="Helvetica" font-size="17.5" fill="#FFFFFF" transform="matrix(1.00, 0.00, -0.00, -1.00, 115.9, 52.0)"> </text><text xml:space="preserve" font-family="Helvetica" font-size="17.5" fill="#FFFFFF" transform="matrix(1.00, 0.00, -0.00, -1.00, 120.7, 52.0)">R</text><text xml:space="preserve" font-family="Helvetica" font-size="17.5" fill="#FFFFFF" transform="matrix(1.00, 0.00, -0.00, -1.00, 133.3, 52.0)">a</text><text xml:space="preserve" font-family="Helvetica" font-size="17.5" fill="#FFFFFF" transform="matrix(1.00, 0.00, -0.00, -1.00, 143.0, 52.0)">n</text><text xml:space="preserve" font-family="Helvetica" font-size="17.5" fill="#FFFFFF" transform="matrix(1.00, 0.00, -0.00, -1.00, 152.7, 52.0)">g</text><text xml:space="preserve" font-family="Helvetica" font-size="17.5" fill="#FFFFFF" transform="matrix(1.00, 0.00, -0.00, -1.00, 162.5, 52.0)">e</text><text xml:space="preserve" font-family="Helvetica" font-size="17.5" fill="#FFFFFF" transform="matrix(1.00, 0.00, -0.00, -1.00, 172.2, 52.0)">s</text><text xml:space="preserve" font-family="Helvetica" font-size="17.5" fill="#FFFFFF" transform="matrix(1.00, 0.00, -0.00, -1.00, 180.9, 52.0)"> </text><text xml:space="preserve" font-family="Helvetica" font-size="17.5" fill="#FFFFFF" transform="matrix(1.00, 0.00, -0.00, -1.00, 185.7, 52.0)">f</text><text xml:space="preserve" font-family="Helvetica" font-size="17.5" fill="#FFFFFF" transform="matrix(1.00, 0.00, -0.00, -1.00, 190.6, 52.0)">r</text><text xml:space="preserve" font-family="Helvetica" font-size="17.5" fill="#FFFFFF" transform="matrix(1.00, 0.00, -0.00, -1.00, 196.4, 52.0)">o</text><text xml:space="preserve" font-family="Helvetica" font-size="17.5" fill="#FFFFFF" transform="matrix(1.00, 0.00, -0.00, -1.00, 206.1, 52.0)">m</text><text xml:space="preserve" font-family="Helvetica" font-size="17.5" fill="#FFFFFF" transform="matrix(1.00, 0.00, -0.00, -1.00, 220.7, 52.0)"> </text><text xml:space="preserve" font-family="Helvetica" font-size="17.5" fill="#FFFFFF" transform="matrix(1.00, 0.00, -0.00, -1.00, 19.0, 29.0)">E</text><text xml:space="preserve" font-family="Helvetica" font-size="17.5" fill="#FFFFFF" transform="matrix(1.00, 0.00, -0.00, -1.00, 30.6, 29.0)">x</text><text xml:space="preserve" font-family="Helvetica" font-size="17.5" fill="#FFFFFF" transform="matrix(1.00, 0.00, -0.00, -1.00, 39.4, 29.0)">c</text><text xml:space="preserve" font-family="Helvetica" font-size="17.5" fill="#FFFFFF" transform="matrix(1.00, 0.00, -0.00, -1.00, 48.1, 29.0)">e</text><text xml:space="preserve" font-family="Helvetica" font-size="17.5" fill="#FFFFFF" transform="matrix(1.00, 0.00, -0.00, -1.00, 57.8, 29.0)">l</text><text xml:space="preserve" font-family="Helvetica" font-size="17.5" fill="#FFFFFF" transform="matrix(1.00, 0.00, -0.00, -1.00, 61.7, 29.0)"> </text><text xml:space="preserve" font-family="Helvetica" font-size="17.5" fill="#FFFFFF" transform="matrix(1.00, 0.00, -0.00, -1.00, 66.5, 29.0)">p</text><text xml:space="preserve" font-family="Helvetica" font-size="17.5" fill="#FFFFFF" transform="matrix(1.00, 0.00, -0.00, -1.00, 76.3, 29.0)">u</text><text xml:space="preserve" font-family="Helvetica" font-size="17.5" fill="#FFFFFF" transform="matrix(1.00, 0.00, -0.00, -1.00, 86.0, 29.0)">s</text><text xml:space="preserve" font-family="Helvetica" font-size="17.5" fill="#FFFFFF" transform="matrix(1.00, 0.00, -0.00, -1.00, 94.7, 29.0)">h</text><text xml:space="preserve" font-family="Helvetica" font-size="17.5" fill="#FFFFFF" transform="matrix(1.00, 0.00, -0.00, -1.00, 104.4, 29.0)">e</text><text xml:space="preserve" font-family="Helvetica" font-size="17.5" fill="#FFFFFF" transform="matrix(1.00, 0.00, -0.00, -1.00, 114.1, 29.0)">r</text><text xml:space="preserve" font-family="Helvetica" font-size="17.5" fill="#FFFFFF" transform="matrix(1.00, 0.00, -0.00, -1.00, 119.9, 29.0)"> </text><text xml:space="preserve" font-family="Helvetica" font-size="17.5" fill="#FFFFFF" transform="matrix(1.00, 0.00, -0.00, -1.00, 124.8, 29.0)">t</text><text xml:space="preserve" font-family="Helvetica" font-size="17.5" fill="#FFFFFF" transform="matrix(1.00, 0.00, -0.00, -1.00, 129.6, 29.0)">o</text><text xml:space="preserve" font-family="Helvetica" font-size="17.5" fill="#FFFFFF" transform="matrix(1.00, 0.00, -0.00, -1.00, 139.4, 29.0)"> </text><text xml:space="preserve" font-family="Helvetica" font-size="17.5" fill="#FFFFFF" transform="matrix(1.00, 0.00, -0.00, -1.00, 144.2, 29.0)">s</text><text xml:space="preserve" font-family="Helvetica" font-size="17.5" fill="#FFFFFF" transform="matrix(1.00, 0.00, -0.00, -1.00, 152.9, 29.0)">o</text><text xml:space="preserve" font-family="Helvetica" font-size="17.5" fill="#FFFFFF" transform="matrix(1.00, 0.00, -0.00, -1.00, 162.6, 29.0)">f</text><text xml:space="preserve" font-family="Helvetica" font-size="17.5" fill="#FFFFFF" transform="matrix(1.00, 0.00, -0.00, -1.00, 167.5, 29.0)">t</text><text xml:space="preserve" font-family="Helvetica" font-size="17.5" fill="#FFFFFF" transform="matrix(1.00, 0.00, -0.00, -1.00, 172.3, 29.0)">w</text><text xml:space="preserve" font-family="Helvetica" font-size="17.5" fill="#FFFFFF" transform="matrix(1.00, 0.00, -0.00, -1.00, 185.0, 29.0)">a</text><text xml:space="preserve" font-family="Helvetica" font-size="17.5" fill="#FFFFFF" transform="matrix(1.00, 0.00, -0.00, -1.00, 194.7, 29.0)">r</text><text xml:space="preserve" font-family="Helvetica" font-size="17.5" fill="#FFFFFF" transform="matrix(1.00, 0.00, -0.00, -1.00, 200.5, 29.0)">e</text><text xml:space="preserve" font-family="Helvetica" font-size="17.5" fill="#FFFFFF" transform="matrix(1.00, 0.00, -0.00, -1.00, 210.2, 29.0)"> </text><text xml:space="preserve" font-family="Helvetica" font-size="17.5" fill="#FFFFFF" transform="matrix(1.00, 0.00, -0.00, -1.00, 19.0, 6.0)">e</text><text xml:space="preserve" font-family="Helvetica" font-size="17.5" fill="#FFFFFF" transform="matrix(1.00, 0.00, -0.00, -1.00, 28.7, 6.0)">n</text><text xml:space="preserve" font-family="Helvetica" font-size="17.5" fill="#FFFFFF" transform="matrix(1.00, 0.00, -0.00, -1.00, 38.4, 6.0)">g</text><text xml:space="preserve" font-family="Helvetica" font-size="17.5" fill="#FFFFFF" transform="matrix(1.00, 0.00, -0.00, -1.00, 48.1, 6.0)">i</text><text xml:space="preserve" font-family="Helvetica" font-size="17.5" fill="#FFFFFF" transform="matrix(1.00, 0.00, -0.00, -1.00, 52.0, 6.0)">n</text><text xml:space="preserve" font-family="Helvetica" font-size="17.5" fill="#FFFFFF" transform="matrix(1.00, 0.00, -0.00, -1.00, 61.7, 6.0)">e</text><text xml:space="preserve" font-family="Helvetica" font-size="17.5" fill="#FFFFFF" transform="matrix(1.00, 0.00, -0.00, -1.00, 71.5, 6.0)">e</text><text xml:space="preserve" font-family="Helvetica" font-size="17.5" fill="#FFFFFF" transform="matrix(1.00, 0.00, -0.00, -1.00, 81.2, 6.0)">r</text></g></svg>