<?xml version="1.0" encoding="UTF-8" standalone="no"?><svg xmlns="http://www.w3.org/2000/svg" xmlns:xlink="http://www.w3.org/1999/xlink" clip-rule="evenodd" stroke-miterlimit="4.00" viewBox="0 0 641 29"><desc>SVG generated by Keynote</desc><defs></defs><g transform="matrix(1.00, 0.00, -0.00, -1.00, 0.0, 29.0)"><text xml:space="preserve" font-family="Helvetica" font-size="26.1" fill="#FFFFFF" transform="matrix(1.00, 0.00, -0.00, -1.00, 1.0, 8.0)">S</text><text xml:space="preserve" font-family="Helvetica" font-size="26.1" fill="#FFFFFF" transform="matrix(1.00, 0.00, -0.00, -1.00, 18.4, 8.0)">e</text><text xml:space="preserve" font-family="Helvetica" font-size="26.1" fill="#FFFFFF" transform="matrix(1.00, 0.00, -0.00, -1.00, 32.9, 8.0)">a</text><text xml:space="preserve" font-family="Helvetica" font-size="26.1" fill="#FFFFFF" transform="matrix(1.00, 0.00, -0.00, -1.00, 47.5, 8.0)">r</text><text xml:space="preserve" font-family="Helvetica" font-size="26.1" fill="#FFFFFF" transform="matrix(1.00, 0.00, -0.00, -1.00, 56.1, 8.0)">c</text><text xml:space="preserve" font-family="Helvetica" font-size="26.1" fill="#FFFFFF" transform="matrix(1.00, 0.00, -0.00, -1.00, 69.2, 8.0)">h</text><text xml:space="preserve" font-family="Helvetica" font-size="26.1" fill="#FFFFFF" transform="matrix(1.00, 0.00, -0.00, -1.00, 83.7, 8.0)">i</text><text xml:space="preserve" font-family="Helvetica" font-size="26.1" fill="#FFFFFF" transform="matrix(1.00, 0.00, -0.00, -1.00, 89.5, 8.0)">n</text><text xml:space="preserve" font-family="Helvetica" font-size="26.1" fill="#FFFFFF" transform="matrix(1.00, 0.00, -0.00, -1.00, 104.0, 8.0)">g</text><text xml:space="preserve" font-family="Helvetica" font-size="26.1" fill="#FFFFFF" transform="matrix(1.00, 0.00, -0.00, -1.00, 118.6, 8.0)"> </text><text xml:space="preserve" font-family="Helvetica" font-size="26.1" fill="#FFFFFF" transform="matrix(1.00, 0.00, -0.00, -1.00, 125.8, 8.0)">f</text><text xml:space="preserve" font-family="Helvetica" font-size="26.1" fill="#FFFFFF" transform="matrix(1.00, 0.00, -0.00, -1.00, 133.1, 8.0)">o</text><text xml:space="preserve" font-family="Helvetica" font-size="26.1" fill="#FFFFFF" transform="matrix(1.00, 0.00, -0.00, -1.00, 147.6, 8.0)">r</text><text xml:space="preserve" font-family="Helvetica" font-size="26.1" fill="#FFFFFF" transform="matrix(1.00, 0.00, -0.00, -1.00, 156.3, 8.0)"> </text><text xml:space="preserve" font-family="Helvetica" font-size="26.1" fill="#FFFFFF" transform="matrix(1.00, 0.00, -0.00, -1.00, 163.5, 8.0)">d</text><text xml:space="preserve" font-family="Helvetica" font-size="26.1" fill="#FFFFFF" transform="matrix(1.00, 0.00, -0.00, -1.00, 178.0, 8.0)">a</text><text xml:space="preserve" font-family="Helvetica" font-size="26.1" fill="#FFFFFF" transform="matrix(1.00, 0.00, -0.00, -1.00, 192.6, 8.0)">t</text><text xml:space="preserve" font-family="Helvetica" font-size="26.1" fill="#FFFFFF" transform="matrix(1.00, 0.00, -0.00, -1.00, 199.8, 8.0)">a</text><text xml:space="preserve" font-family="Helvetica" font-size="26.1" fill="#FFFFFF" transform="matrix(1.00, 0.00, -0.00, -1.00, 214.3, 8.0)"> </text><text xml:space="preserve" font-family="Helvetica" font-size="26.1" fill="#FFFFFF" transform="matrix(1.00, 0.00, -0.00, -1.00, 221.6, 8.0)">s</text><text xml:space="preserve" font-family="Helvetica" font-size="26.1" fill="#FFFFFF" transform="matrix(1.00, 0.00, -0.00, -1.00, 234.6, 8.0)">c</text><text xml:space="preserve" font-family="Helvetica" font-size="26.1" fill="#FFFFFF" transform="matrix(1.00, 0.00, -0.00, -1.00, 247.7, 8.0)">i</text><text xml:space="preserve" font-family="Helvetica" font-size="26.1" fill="#FFFFFF" transform="matrix(1.00, 0.00, -0.00, -1.00, 253.5, 8.0)">e</text><text xml:space="preserve" font-family="Helvetica" font-size="26.1" fill="#FFFFFF" transform="matrix(1.00, 0.00, -0.00, -1.00, 268.0, 8.0)">n</text><text xml:space="preserve" font-family="Helvetica" font-size="26.1" fill="#FFFFFF" transform="matrix(1.00, 0.00, -0.00, -1.00, 282.5, 8.0)">c</text><text xml:space="preserve" font-family="Helvetica" font-size="26.1" fill="#FFFFFF" transform="matrix(1.00, 0.00, -0.00, -1.00, 295.6, 8.0)">e</text><text xml:space="preserve" font-family="Helvetica" font-size="26.1" fill="#FFFFFF" transform="matrix(1.00, 0.00, -0.00, -1.00, 310.1, 8.0)"> </text><text xml:space="preserve" font-family="Helvetica" font-size="26.1" fill="#FFFFFF" transform="matrix(1.00, 0.00, -0.00, -1.00, 317.3, 8.0)">j</text><text xml:space="preserve" font-family="Helvetica" font-size="26.1" fill="#FFFFFF" transform="matrix(1.00, 0.00, -0.00, -1.00, 323.1, 8.0)">o</text><text xml:space="preserve" font-family="Helvetica" font-size="26.1" fill="#FFFFFF" transform="matrix(1.00, 0.00, -0.00, -1.00, 337.7, 8.0)">b</text><text xml:space="preserve" font-family="Helvetica" font-size="26.1" fill="#FFFFFF" transform="matrix(1.00, 0.00, -0.00, -1.00, 352.2, 8.0)">s</text><text xml:space="preserve" font-family="Helvetica" font-size="26.1" fill="#FFFFFF" transform="matrix(1.00, 0.00, -0.00, -1.00, 365.2, 8.0)"> </text><text xml:space="preserve" font-family="Helvetica" font-size="26.1" fill="#FFFFFF" transform="matrix(1.00, 0.00, -0.00, -1.00, 372.5, 8.0)">i</text><text xml:space="preserve" font-family="Helvetica" font-size="26.1" fill="#FFFFFF" transform="matrix(1.00, 0.00, -0.00, -1.00, 378.3, 8.0)">s</text><text xml:space="preserve" font-family="Helvetica" font-size="26.1" fill="#FFFFFF" transform="matrix(1.00, 0.00, -0.00, -1.00, 391.3, 8.0)"> </text><text xml:space="preserve" font-family="Helvetica" font-size="26.1" fill="#FFFFFF" transform="matrix(1.00, 0.00, -0.00, -1.00, 398.6, 8.0)">t</text><text xml:space="preserve" font-family="Helvetica" font-size="26.1" fill="#FFFFFF" transform="matrix(1.00, 0.00, -0.00, -1.00, 405.8, 8.0)">i</text><text xml:space="preserve" font-family="Helvetica" font-size="26.1" fill="#FFFFFF" transform="matrix(1.00, 0.00, -0.00, -1.00, 411.6, 8.0)">r</text><text xml:space="preserve" font-family="Helvetica" font-size="26.1" fill="#FFFFFF" transform="matrix(1.00, 0.00, -0.00, -1.00, 420.3, 8.0)">i</text><text xml:space="preserve" font-family="Helvetica" font-size="26.1" fill="#FFFFFF" transform="matrix(1.00, 0.00, -0.00, -1.00, 426.1, 8.0)">n</text><text xml:space="preserve" font-family="Helvetica" font-size="26.1" fill="#FFFFFF" transform="matrix(1.00, 0.00, -0.00, -1.00, 440.6, 8.0)">g</text><text xml:space="preserve" font-family="Helvetica" font-size="26.1" fill="#FFFFFF" transform="matrix(1.00, 0.00, -0.00, -1.00, 455.2, 8.0)"> </text><text xml:space="preserve" font-family="Helvetica" font-size="26.1" fill="#FFFFFF" transform="matrix(1.00, 0.00, -0.00, -1.00, 462.4, 8.0)">a</text><text xml:space="preserve" font-family="Helvetica" font-size="26.1" fill="#FFFFFF" transform="matrix(1.00, 0.00, -0.00, -1.00, 476.9, 8.0)">n</text><text xml:space="preserve" font-family="Helvetica" font-size="26.1" fill="#FFFFFF" transform="matrix(1.00, 0.00, -0.00, -1.00, 491.4, 8.0)">d</text><text xml:space="preserve" font-family="Helvetica" font-size="26.1" fill="#FFFFFF" transform="matrix(1.00, 0.00, -0.00, -1.00, 506.0, 8.0)"> </text><text xml:space="preserve" font-family="Helvetica" font-size="26.1" fill="#FFFFFF" transform="matrix(1.00, 0.00, -0.00, -1.00, 513.2, 8.0)">d</text><text xml:space="preserve" font-family="Helvetica" font-size="26.1" fill="#FFFFFF" transform="matrix(1.00, 0.00, -0.00, -1.00, 527.7, 8.0)">e</text><text xml:space="preserve" font-family="Helvetica" font-size="26.1" fill="#FFFFFF" transform="matrix(1.00, 0.00, -0.00, -1.00, 542.3, 8.0)">p</text><text xml:space="preserve" font-family="Helvetica" font-size="26.1" fill="#FFFFFF" transform="matrix(1.00, 0.00, -0.00, -1.00, 556.8, 8.0)">r</text><text xml:space="preserve" font-family="Helvetica" font-size="26.1" fill="#FFFFFF" transform="matrix(1.00, 0.00, -0.00, -1.00, 565.5, 8.0)">e</text><text xml:space="preserve" font-family="Helvetica" font-size="26.1" fill="#FFFFFF" transform="matrix(1.00, 0.00, -0.00, -1.00, 580.0, 8.0)">s</text><text xml:space="preserve" font-family="Helvetica" font-size="26.1" fill="#FFFFFF" transform="matrix(1.00, 0.00, -0.00, -1.00, 593.0, 8.0)">s</text><text xml:space="preserve" font-family="Helvetica" font-size="26.1" fill="#FFFFFF" transform="matrix(1.00, 0.00, -0.00, -1.00, 606.1, 8.0)">i</text><text xml:space="preserve" font-family="Helvetica" font-size="26.1" fill="#FFFFFF" transform="matrix(1.00, 0.00, -0.00, -1.00, 611.9, 8.0)">n</text><text xml:space="preserve" font-family="Helvetica" font-size="26.1" fill="#FFFFFF" transform="matrix(1.00, 0.00, -0.00, -1.00, 626.4, 8.0)">g</text></g></svg>