<?xml version="1.0" encoding="UTF-8" standalone="no"?><svg xmlns="http://www.w3.org/2000/svg" xmlns:xlink="http://www.w3.org/1999/xlink" clip-rule="evenodd" stroke-miterlimit="4.00" viewBox="0 0 720 405"><desc>SVG generated by Keynote</desc><defs></defs><g transform="matrix(1.00, 0.00, -0.00, -1.00, 0.0, 405.0)"><path d="M 0.0 405.0 L 720.0 405.0 L 720.0 0.0 L 0.0 0.0 Z M 0.0 405.0 " fill="#00517B"></path><path d="M 0.0 0.0 L 33.4 0.0 " fill="none" stroke="#039BE4" stroke-width="3.00" stroke-linejoin="round" transform="matrix(1.00, 0.00, 0.00, -1.00, 38.8, 305.8)"></path><text xml:space="preserve" font-family="Helvetica" font-size="27.9" fill="#FFFFFF" transform="matrix(1.00, 0.00, -0.00, -1.00, 38.0, 328.0)">W</text><text xml:space="preserve" font-family="Helvetica" font-size="27.9" fill="#FFFFFF" transform="matrix(1.00, 0.00, -0.00, -1.00, 64.3, 328.0)">h</text><text xml:space="preserve" font-family="Helvetica" font-size="27.9" fill="#FFFFFF" transform="matrix(1.00, 0.00, -0.00, -1.00, 79.9, 328.0)">i</text><text xml:space="preserve" font-family="Helvetica" font-size="27.9" fill="#FFFFFF" transform="matrix(1.00, 0.00, -0.00, -1.00, 86.1, 328.0)">c</text><text xml:space="preserve" font-family="Helvetica" font-size="27.9" fill="#FFFFFF" transform="matrix(1.00, 0.00, -0.00, -1.00, 100.0, 328.0)">h</text><text xml:space="preserve" font-family="Helvetica" font-size="27.9" fill="#FFFFFF" transform="matrix(1.00, 0.00, -0.00, -1.00, 115.5, 328.0)"> </text><text xml:space="preserve" font-family="Helvetica" font-size="27.9" fill="#FFFFFF" transform="matrix(1.00, 0.00, -0.00, -1.00, 123.3, 328.0)">j</text><text xml:space="preserve" font-family="Helvetica" font-size="27.9" fill="#FFFFFF" transform="matrix(1.00, 0.00, -0.00, -1.00, 129.5, 328.0)">o</text><text xml:space="preserve" font-family="Helvetica" font-size="27.9" fill="#FFFFFF" transform="matrix(1.00, 0.00, -0.00, -1.00, 145.0, 328.0)">b</text><text xml:space="preserve" font-family="Helvetica" font-size="27.9" fill="#FFFFFF" transform="matrix(1.00, 0.00, -0.00, -1.00, 160.5, 328.0)"> </text><text xml:space="preserve" font-family="Helvetica" font-size="27.9" fill="#FFFFFF" transform="matrix(1.00, 0.00, -0.00, -1.00, 168.3, 328.0)">t</text><text xml:space="preserve" font-family="Helvetica" font-size="27.9" fill="#FFFFFF" transform="matrix(1.00, 0.00, -0.00, -1.00, 176.0, 328.0)">i</text><text xml:space="preserve" font-family="Helvetica" font-size="27.9" fill="#FFFFFF" transform="matrix(1.00, 0.00, -0.00, -1.00, 182.2, 328.0)">t</text><text xml:space="preserve" font-family="Helvetica" font-size="27.9" fill="#FFFFFF" transform="matrix(1.00, 0.00, -0.00, -1.00, 190.0, 328.0)">l</text><text xml:space="preserve" font-family="Helvetica" font-size="27.9" fill="#FFFFFF" transform="matrix(1.00, 0.00, -0.00, -1.00, 196.2, 328.0)">e</text><text xml:space="preserve" font-family="Helvetica" font-size="27.9" fill="#FFFFFF" transform="matrix(1.00, 0.00, -0.00, -1.00, 211.7, 328.0)">s</text><text xml:space="preserve" font-family="Helvetica" font-size="27.9" fill="#FFFFFF" transform="matrix(1.00, 0.00, -0.00, -1.00, 225.6, 328.0)"> </text><text xml:space="preserve" font-family="Helvetica" font-size="27.9" fill="#FFFFFF" transform="matrix(1.00, 0.00, -0.00, -1.00, 233.4, 328.0)">c</text><text xml:space="preserve" font-family="Helvetica" font-size="27.9" fill="#FFFFFF" transform="matrix(1.00, 0.00, -0.00, -1.00, 247.3, 328.0)">a</text><text xml:space="preserve" font-family="Helvetica" font-size="27.9" fill="#FFFFFF" transform="matrix(1.00, 0.00, -0.00, -1.00, 262.9, 328.0)">n</text><text xml:space="preserve" font-family="Helvetica" font-size="27.9" fill="#FFFFFF" transform="matrix(1.00, 0.00, -0.00, -1.00, 278.4, 328.0)"> </text><text xml:space="preserve" font-family="Helvetica" font-size="27.9" fill="#FFFFFF" transform="matrix(1.00, 0.00, -0.00, -1.00, 286.1, 328.0)">w</text><text xml:space="preserve" font-family="Helvetica" font-size="27.9" fill="#FFFFFF" transform="matrix(1.00, 0.00, -0.00, -1.00, 306.3, 328.0)">e</text><text xml:space="preserve" font-family="Helvetica" font-size="27.9" fill="#FFFFFF" transform="matrix(1.00, 0.00, -0.00, -1.00, 321.8, 328.0)"> </text><text xml:space="preserve" font-family="Helvetica" font-size="27.9" fill="#FFFFFF" transform="matrix(1.00, 0.00, -0.00, -1.00, 329.5, 328.0)">p</text><text xml:space="preserve" font-family="Helvetica" font-size="27.9" fill="#FFFFFF" transform="matrix(1.00, 0.00, -0.00, -1.00, 345.1, 328.0)">r</text><text xml:space="preserve" font-family="Helvetica" font-size="27.9" fill="#FFFFFF" transform="matrix(1.00, 0.00, -0.00, -1.00, 354.4, 328.0)">e</text><text xml:space="preserve" font-family="Helvetica" font-size="27.9" fill="#FFFFFF" transform="matrix(1.00, 0.00, -0.00, -1.00, 369.9, 328.0)">d</text><text xml:space="preserve" font-family="Helvetica" font-size="27.9" fill="#FFFFFF" transform="matrix(1.00, 0.00, -0.00, -1.00, 385.4, 328.0)">i</text><text xml:space="preserve" font-family="Helvetica" font-size="27.9" fill="#FFFFFF" transform="matrix(1.00, 0.00, -0.00, -1.00, 391.6, 328.0)">c</text><text xml:space="preserve" font-family="Helvetica" font-size="27.9" fill="#FFFFFF" transform="matrix(1.00, 0.00, -0.00, -1.00, 405.6, 328.0)">t</text><text xml:space="preserve" font-family="Helvetica" font-size="27.9" fill="#FFFFFF" transform="matrix(1.00, 0.00, -0.00, -1.00, 413.3, 328.0)"> </text><text xml:space="preserve" font-family="Helvetica" font-size="27.9" fill="#FFFFFF" transform="matrix(1.00, 0.00, -0.00, -1.00, 421.1, 328.0)">f</text><text xml:space="preserve" font-family="Helvetica" font-size="27.9" fill="#FFFFFF" transform="matrix(1.00, 0.00, -0.00, -1.00, 428.8, 328.0)">r</text><text xml:space="preserve" font-family="Helvetica" font-size="27.9" fill="#FFFFFF" transform="matrix(1.00, 0.00, -0.00, -1.00, 438.1, 328.0)">o</text><text xml:space="preserve" font-family="Helvetica" font-size="27.9" fill="#FFFFFF" transform="matrix(1.00, 0.00, -0.00, -1.00, 453.6, 328.0)">m</text><text xml:space="preserve" font-family="Helvetica" font-size="27.9" fill="#FFFFFF" transform="matrix(1.00, 0.00, -0.00, -1.00, 476.9, 328.0)"> </text><text xml:space="preserve" font-family="Helvetica" font-size="27.9" fill="#FFFFFF" transform="matrix(1.00, 0.00, -0.00, -1.00, 484.6, 328.0)">j</text><text xml:space="preserve" font-family="Helvetica" font-size="27.9" fill="#FFFFFF" transform="matrix(1.00, 0.00, -0.00, -1.00, 490.8, 328.0)">o</text><text xml:space="preserve" font-family="Helvetica" font-size="27.9" fill="#FFFFFF" transform="matrix(1.00, 0.00, -0.00, -1.00, 506.3, 328.0)">b</text><text xml:space="preserve" font-family="Helvetica" font-size="27.9" fill="#FFFFFF" transform="matrix(1.00, 0.00, -0.00, -1.00, 521.8, 328.0)"> </text><text xml:space="preserve" font-family="Helvetica" font-size="27.9" fill="#FFFFFF" transform="matrix(1.00, 0.00, -0.00, -1.00, 529.6, 328.0)">d</text><text xml:space="preserve" font-family="Helvetica" font-size="27.9" fill="#FFFFFF" transform="matrix(1.00, 0.00, -0.00, -1.00, 545.1, 328.0)">e</text><text xml:space="preserve" font-family="Helvetica" font-size="27.9" fill="#FFFFFF" transform="matrix(1.00, 0.00, -0.00, -1.00, 560.6, 328.0)">s</text><text xml:space="preserve" font-family="Helvetica" font-size="27.9" fill="#FFFFFF" transform="matrix(1.00, 0.00, -0.00, -1.00, 574.6, 328.0)">c</text><text xml:space="preserve" font-family="Helvetica" font-size="27.9" fill="#FFFFFF" transform="matrix(1.00, 0.00, -0.00, -1.00, 588.5, 328.0)">r</text><text xml:space="preserve" font-family="Helvetica" font-size="27.9" fill="#FFFFFF" transform="matrix(1.00, 0.00, -0.00, -1.00, 597.8, 328.0)">i</text><text xml:space="preserve" font-family="Helvetica" font-size="27.9" fill="#FFFFFF" transform="matrix(1.00, 0.00, -0.00, -1.00, 604.0, 328.0)">p</text><text xml:space="preserve" font-family="Helvetica" font-size="27.9" fill="#FFFFFF" transform="matrix(1.00, 0.00, -0.00, -1.00, 619.6, 328.0)">t</text><text xml:space="preserve" font-family="Helvetica" font-size="27.9" fill="#FFFFFF" transform="matrix(1.00, 0.00, -0.00, -1.00, 627.3, 328.0)">i</text><text xml:space="preserve" font-family="Helvetica" font-size="27.9" fill="#FFFFFF" transform="matrix(1.00, 0.00, -0.00, -1.00, 633.5, 328.0)">o</text><text xml:space="preserve" font-family="Helvetica" font-size="27.9" fill="#FFFFFF" transform="matrix(1.00, 0.00, -0.00, -1.00, 649.0, 328.0)">n</text><text xml:space="preserve" font-family="Helvetica" font-size="27.9" fill="#FFFFFF" transform="matrix(1.00, 0.00, -0.00, -1.00, 664.5, 328.0)">?</text><text xml:space="preserve" font-family="Arial-BoldMT" font-weight="bold" font-size="14.0" fill="#FFFFFF" transform="matrix(1.00, 0.00, -0.00, -1.00, 123.0, 277.0)">W</text><text xml:space="preserve" font-family="Arial-BoldMT" font-weight="bold" font-size="14.0" fill="#FFFFFF" transform="matrix(1.00, 0.00, -0.00, -1.00, 136.1, 277.0)">i</text><text xml:space="preserve" font-family="Arial-BoldMT" font-weight="bold" font-size="14.0" fill="#FFFFFF" transform="matrix(1.00, 0.00, -0.00, -1.00, 140.0, 277.0)">t</text><text xml:space="preserve" font-family="Arial-BoldMT" font-weight="bold" font-size="14.0" fill="#FFFFFF" transform="matrix(1.00, 0.00, -0.00, -1.00, 144.6, 277.0)">h</text><text xml:space="preserve" font-family="Arial-BoldMT" font-weight="bold" font-size="14.0" fill="#FFFFFF" transform="matrix(1.00, 0.00, -0.00, -1.00, 153.2, 277.0)">o</text><text xml:space="preserve" font-family="Arial-BoldMT" font-weight="bold" font-size="14.0" fill="#FFFFFF" transform="matrix(1.00, 0.00, -0.00, -1.00, 161.7, 277.0)">u</text><text xml:space="preserve" font-family="Arial-BoldMT" font-weight="bold" font-size="14.0" fill="#FFFFFF" transform="matrix(1.00, 0.00, -0.00, -1.00, 170.3, 277.0)">t</text><text xml:space="preserve" font-family="Arial-BoldMT" font-weight="bold" font-size="14.0" fill="#FFFFFF" transform="matrix(1.00, 0.00, -0.00, -1.00, 174.9, 277.0)"> </text><text xml:space="preserve" font-family="Arial-BoldMT" font-weight="bold" font-size="14.0" fill="#FFFFFF" transform="matrix(1.00, 0.00, -0.00, -1.00, 178.8, 277.0)">b</text><text xml:space="preserve" font-family="Arial-BoldMT" font-weight="bold" font-size="14.0" fill="#FFFFFF" transform="matrix(1.00, 0.00, -0.00, -1.00, 187.4, 277.0)">u</text><text xml:space="preserve" font-family="Arial-BoldMT" font-weight="bold" font-size="14.0" fill="#FFFFFF" transform="matrix(1.00, 0.00, -0.00, -1.00, 195.9, 277.0)">z</text><text xml:space="preserve" font-family="Arial-BoldMT" font-weight="bold" font-size="14.0" fill="#FFFFFF" transform="matrix(1.00, 0.00, -0.00, -1.00, 202.9, 277.0)">z</text><text xml:space="preserve" font-family="Arial-BoldMT" font-weight="bold" font-size="14.0" fill="#FFFFFF" transform="matrix(1.00, 0.00, -0.00, -1.00, 209.9, 277.0)">w</text><text xml:space="preserve" font-family="Arial-BoldMT" font-weight="bold" font-size="14.0" fill="#FFFFFF" transform="matrix(1.00, 0.00, -0.00, -1.00, 220.8, 277.0)">o</text><text xml:space="preserve" font-family="Arial-BoldMT" font-weight="bold" font-size="14.0" fill="#FFFFFF" transform="matrix(1.00, 0.00, -0.00, -1.00, 229.4, 277.0)">r</text><text xml:space="preserve" font-family="Arial-BoldMT" font-weight="bold" font-size="14.0" fill="#FFFFFF" transform="matrix(1.00, 0.00, -0.00, -1.00, 234.8, 277.0)">d</text><text xml:space="preserve" font-family="Arial-BoldMT" font-weight="bold" font-size="14.0" fill="#FFFFFF" transform="matrix(1.00, 0.00, -0.00, -1.00, 243.4, 277.0)">s</text><text xml:space="preserve" font-family="ArialMT" font-size="14.0" fill="#FFFFFF" transform="matrix(1.00, 0.00, -0.00, -1.00, 130.0, 14.0)">F</text><text xml:space="preserve" font-family="ArialMT" font-size="14.0" fill="#FFFFFF" transform="matrix(1.00, 0.00, -0.00, -1.00, 138.5, 14.0)">a</text><text xml:space="preserve" font-family="ArialMT" font-size="14.0" fill="#FFFFFF" transform="matrix(1.00, 0.00, -0.00, -1.00, 146.3, 14.0)">l</text><text xml:space="preserve" font-family="ArialMT" font-size="14.0" fill="#FFFFFF" transform="matrix(1.00, 0.00, -0.00, -1.00, 149.5, 14.0)">s</text><text xml:space="preserve" font-family="ArialMT" font-size="14.0" fill="#FFFFFF" transform="matrix(1.00, 0.00, -0.00, -1.00, 156.5, 14.0)">e</text><text xml:space="preserve" font-family="ArialMT" font-size="14.0" fill="#FFFFFF" transform="matrix(1.00, 0.00, -0.00, -1.00, 164.2, 14.0)"> </text><text xml:space="preserve" font-family="ArialMT" font-size="14.0" fill="#FFFFFF" transform="matrix(1.00, 0.00, -0.00, -1.00, 168.1, 14.0)">p</text><text xml:space="preserve" font-family="ArialMT" font-size="14.0" fill="#FFFFFF" transform="matrix(1.00, 0.00, -0.00, -1.00, 175.9, 14.0)">o</text><text xml:space="preserve" font-family="ArialMT" font-size="14.0" fill="#FFFFFF" transform="matrix(1.00, 0.00, -0.00, -1.00, 183.7, 14.0)">s</text><text xml:space="preserve" font-family="ArialMT" font-size="14.0" fill="#FFFFFF" transform="matrix(1.00, 0.00, -0.00, -1.00, 190.7, 14.0)">i</text><text xml:space="preserve" font-family="ArialMT" font-size="14.0" fill="#FFFFFF" transform="matrix(1.00, 0.00, -0.00, -1.00, 193.8, 14.0)">t</text><text xml:space="preserve" font-family="ArialMT" font-size="14.0" fill="#FFFFFF" transform="matrix(1.00, 0.00, -0.00, -1.00, 197.7, 14.0)">i</text><text xml:space="preserve" font-family="ArialMT" font-size="14.0" fill="#FFFFFF" transform="matrix(1.00, 0.00, -0.00, -1.00, 200.8, 14.0)">v</text><text xml:space="preserve" font-family="ArialMT" font-size="14.0" fill="#FFFFFF" transform="matrix(1.00, 0.00, -0.00, -1.00, 207.8, 14.0)">e</text><text xml:space="preserve" font-family="ArialMT" font-size="14.0" fill="#FFFFFF" transform="matrix(1.00, 0.00, -0.00, -1.00, 215.6, 14.0)"> </text><text xml:space="preserve" font-family="ArialMT" font-size="14.0" fill="#FFFFFF" transform="matrix(1.00, 0.00, -0.00, -1.00, 219.5, 14.0)">r</text><text xml:space="preserve" font-family="ArialMT" font-size="14.0" fill="#FFFFFF" transform="matrix(1.00, 0.00, -0.00, -1.00, 224.2, 14.0)">a</text><text xml:space="preserve" font-family="ArialMT" font-size="14.0" fill="#FFFFFF" transform="matrix(1.00, 0.00, -0.00, -1.00, 231.9, 14.0)">t</text><text xml:space="preserve" font-family="ArialMT" font-size="14.0" fill="#FFFFFF" transform="matrix(1.00, 0.00, -0.00, -1.00, 235.8, 14.0)">e</text><text xml:space="preserve" font-family="ArialMT" font-size="14.0" fill="#FFFFFF" transform="matrix(1.00, 0.00, -0.00, -1.00, 20.0, 27.0)">0</text><text xml:space="preserve" font-family="ArialMT" font-size="14.0" fill="#FFFFFF" transform="matrix(1.00, 0.00, -0.00, -1.00, 27.8, 27.0)">.</text><text xml:space="preserve" font-family="ArialMT" font-size="14.0" fill="#FFFFFF" transform="matrix(1.00, 0.00, -0.00, -1.00, 31.7, 27.0)">0</text><text xml:space="preserve" font-family="ArialMT" font-size="14.0" fill="#FFFFFF" transform="matrix(1.00, 0.00, -0.00, -1.00, 321.0, 27.0)">1</text><text xml:space="preserve" font-family="ArialMT" font-size="14.0" fill="#FFFFFF" transform="matrix(1.00, 0.00, -0.00, -1.00, 328.8, 27.0)">.</text><text xml:space="preserve" font-family="ArialMT" font-size="14.0" fill="#FFFFFF" transform="matrix(1.00, 0.00, -0.00, -1.00, 332.7, 27.0)">0</text><text xml:space="preserve" font-family="ArialMT" font-size="14.0" fill="#FFFFFF" transform="matrix(1.00, 0.00, -0.00, -1.00, 145.0, 27.0)">0</text><text xml:space="preserve" font-family="ArialMT" font-size="14.0" fill="#FFFFFF" transform="matrix(1.00, 0.00, -0.00, -1.00, 152.8, 27.0)">.</text><text xml:space="preserve" font-family="ArialMT" font-size="14.0" fill="#FFFFFF" transform="matrix(1.00, 0.00, -0.00, -1.00, 156.7, 27.0)">4</text><text xml:space="preserve" font-family="ArialMT" font-size="14.0" fill="#FFFFFF" transform="matrix(1.00, 0.00, -0.00, -1.00, 205.0, 27.0)">0</text><text xml:space="preserve" font-family="ArialMT" font-size="14.0" fill="#FFFFFF" transform="matrix(1.00, 0.00, -0.00, -1.00, 212.8, 27.0)">.</text><text xml:space="preserve" font-family="ArialMT" font-size="14.0" fill="#FFFFFF" transform="matrix(1.00, 0.00, -0.00, -1.00, 216.7, 27.0)">6</text><text xml:space="preserve" font-family="ArialMT" font-size="14.0" fill="#FFFFFF" transform="matrix(1.00, 0.00, -0.00, -1.00, 265.0, 27.0)">0</text><text xml:space="preserve" font-family="ArialMT" font-size="14.0" fill="#FFFFFF" transform="matrix(1.00, 0.00, -0.00, -1.00, 272.8, 27.0)">.</text><text xml:space="preserve" font-family="ArialMT" font-size="14.0" fill="#FFFFFF" transform="matrix(1.00, 0.00, -0.00, -1.00, 276.7, 27.0)">8</text><text xml:space="preserve" font-family="ArialMT" font-size="14.0" fill="#FFFFFF" transform="matrix(1.00, 0.00, -0.00, -1.00, 82.0, 27.0)">0</text><text xml:space="preserve" font-family="ArialMT" font-size="14.0" fill="#FFFFFF" transform="matrix(1.00, 0.00, -0.00, -1.00, 89.8, 27.0)">.</text><text xml:space="preserve" font-family="ArialMT" font-size="14.0" fill="#FFFFFF" transform="matrix(1.00, 0.00, -0.00, -1.00, 93.7, 27.0)">2</text><text xml:space="preserve" font-family="ArialMT" font-size="14.0" fill="#FFFFFF" transform="matrix(1.00, 0.00, -0.00, -1.00, 6.0, 233.0)">1</text><text xml:space="preserve" font-family="ArialMT" font-size="14.0" fill="#FFFFFF" transform="matrix(1.00, 0.00, -0.00, -1.00, 13.8, 233.0)">.</text><text xml:space="preserve" font-family="ArialMT" font-size="14.0" fill="#FFFFFF" transform="matrix(1.00, 0.00, -0.00, -1.00, 17.7, 233.0)">0</text><text xml:space="preserve" font-family="ArialMT" font-size="14.0" fill="#FFFFFF" transform="matrix(1.00, 0.00, -0.00, -1.00, 359.0, 233.0)">1</text><text xml:space="preserve" font-family="ArialMT" font-size="14.0" fill="#FFFFFF" transform="matrix(1.00, 0.00, -0.00, -1.00, 366.8, 233.0)">.</text><text xml:space="preserve" font-family="ArialMT" font-size="14.0" fill="#FFFFFF" transform="matrix(1.00, 0.00, -0.00, -1.00, 370.7, 233.0)">0</text><image xlink:href="F8434D9D2459B1DB48F38A2BAB9CDB0A.png" width="313.00" height="209.00" transform="matrix(1.00, 0.00, -0.00, -1.00, 381.0, 250.0)"></image><image xlink:href="23FE6A0A20AD39A90AE4A3940C422808.png" width="316.00" height="209.00" transform="matrix(1.00, 0.00, -0.00, -1.00, 30.0, 250.0)"></image><text xml:space="preserve" font-family="ArialMT" font-size="14.0" fill="#FFFFFF" transform="matrix(1.00, 0.00, -0.00, -1.00, 487.0, 14.0)">F</text><text xml:space="preserve" font-family="ArialMT" font-size="14.0" fill="#FFFFFF" transform="matrix(1.00, 0.00, -0.00, -1.00, 495.5, 14.0)">a</text><text xml:space="preserve" font-family="ArialMT" font-size="14.0" fill="#FFFFFF" transform="matrix(1.00, 0.00, -0.00, -1.00, 503.3, 14.0)">l</text><text xml:space="preserve" font-family="ArialMT" font-size="14.0" fill="#FFFFFF" transform="matrix(1.00, 0.00, -0.00, -1.00, 506.5, 14.0)">s</text><text xml:space="preserve" font-family="ArialMT" font-size="14.0" fill="#FFFFFF" transform="matrix(1.00, 0.00, -0.00, -1.00, 513.5, 14.0)">e</text><text xml:space="preserve" font-family="ArialMT" font-size="14.0" fill="#FFFFFF" transform="matrix(1.00, 0.00, -0.00, -1.00, 521.2, 14.0)"> </text><text xml:space="preserve" font-family="ArialMT" font-size="14.0" fill="#FFFFFF" transform="matrix(1.00, 0.00, -0.00, -1.00, 525.1, 14.0)">p</text><text xml:space="preserve" font-family="ArialMT" font-size="14.0" fill="#FFFFFF" transform="matrix(1.00, 0.00, -0.00, -1.00, 532.9, 14.0)">o</text><text xml:space="preserve" font-family="ArialMT" font-size="14.0" fill="#FFFFFF" transform="matrix(1.00, 0.00, -0.00, -1.00, 540.7, 14.0)">s</text><text xml:space="preserve" font-family="ArialMT" font-size="14.0" fill="#FFFFFF" transform="matrix(1.00, 0.00, -0.00, -1.00, 547.7, 14.0)">i</text><text xml:space="preserve" font-family="ArialMT" font-size="14.0" fill="#FFFFFF" transform="matrix(1.00, 0.00, -0.00, -1.00, 550.8, 14.0)">t</text><text xml:space="preserve" font-family="ArialMT" font-size="14.0" fill="#FFFFFF" transform="matrix(1.00, 0.00, -0.00, -1.00, 554.7, 14.0)">i</text><text xml:space="preserve" font-family="ArialMT" font-size="14.0" fill="#FFFFFF" transform="matrix(1.00, 0.00, -0.00, -1.00, 557.8, 14.0)">v</text><text xml:space="preserve" font-family="ArialMT" font-size="14.0" fill="#FFFFFF" transform="matrix(1.00, 0.00, -0.00, -1.00, 564.8, 14.0)">e</text><text xml:space="preserve" font-family="ArialMT" font-size="14.0" fill="#FFFFFF" transform="matrix(1.00, 0.00, -0.00, -1.00, 572.6, 14.0)"> </text><text xml:space="preserve" font-family="ArialMT" font-size="14.0" fill="#FFFFFF" transform="matrix(1.00, 0.00, -0.00, -1.00, 576.5, 14.0)">r</text><text xml:space="preserve" font-family="ArialMT" font-size="14.0" fill="#FFFFFF" transform="matrix(1.00, 0.00, -0.00, -1.00, 581.2, 14.0)">a</text><text xml:space="preserve" font-family="ArialMT" font-size="14.0" fill="#FFFFFF" transform="matrix(1.00, 0.00, -0.00, -1.00, 588.9, 14.0)">t</text><text xml:space="preserve" font-family="ArialMT" font-size="14.0" fill="#FFFFFF" transform="matrix(1.00, 0.00, -0.00, -1.00, 592.8, 14.0)">e</text><text xml:space="preserve" font-family="ArialMT" font-size="14.0" fill="#FFFFFF" transform="matrix(1.00, 0.00, -0.00, -1.00, 377.0, 28.0)">0</text><text xml:space="preserve" font-family="ArialMT" font-size="14.0" fill="#FFFFFF" transform="matrix(1.00, 0.00, -0.00, -1.00, 384.8, 28.0)">.</text><text xml:space="preserve" font-family="ArialMT" font-size="14.0" fill="#FFFFFF" transform="matrix(1.00, 0.00, -0.00, -1.00, 388.7, 28.0)">0</text><text xml:space="preserve" font-family="ArialMT" font-size="14.0" fill="#FFFFFF" transform="matrix(1.00, 0.00, -0.00, -1.00, 679.0, 28.0)">1</text><text xml:space="preserve" font-family="ArialMT" font-size="14.0" fill="#FFFFFF" transform="matrix(1.00, 0.00, -0.00, -1.00, 686.8, 28.0)">.</text><text xml:space="preserve" font-family="ArialMT" font-size="14.0" fill="#FFFFFF" transform="matrix(1.00, 0.00, -0.00, -1.00, 690.7, 28.0)">0</text><text xml:space="preserve" font-family="ArialMT" font-size="14.0" fill="#FFFFFF" transform="matrix(1.00, 0.00, -0.00, -1.00, 502.0, 28.0)">0</text><text xml:space="preserve" font-family="ArialMT" font-size="14.0" fill="#FFFFFF" transform="matrix(1.00, 0.00, -0.00, -1.00, 509.8, 28.0)">.</text><text xml:space="preserve" font-family="ArialMT" font-size="14.0" fill="#FFFFFF" transform="matrix(1.00, 0.00, -0.00, -1.00, 513.7, 28.0)">4</text><text xml:space="preserve" font-family="ArialMT" font-size="14.0" fill="#FFFFFF" transform="matrix(1.00, 0.00, -0.00, -1.00, 562.0, 28.0)">0</text><text xml:space="preserve" font-family="ArialMT" font-size="14.0" fill="#FFFFFF" transform="matrix(1.00, 0.00, -0.00, -1.00, 569.8, 28.0)">.</text><text xml:space="preserve" font-family="ArialMT" font-size="14.0" fill="#FFFFFF" transform="matrix(1.00, 0.00, -0.00, -1.00, 573.7, 28.0)">6</text><text xml:space="preserve" font-family="ArialMT" font-size="14.0" fill="#FFFFFF" transform="matrix(1.00, 0.00, -0.00, -1.00, 622.0, 28.0)">0</text><text xml:space="preserve" font-family="ArialMT" font-size="14.0" fill="#FFFFFF" transform="matrix(1.00, 0.00, -0.00, -1.00, 629.8, 28.0)">.</text><text xml:space="preserve" font-family="ArialMT" font-size="14.0" fill="#FFFFFF" transform="matrix(1.00, 0.00, -0.00, -1.00, 633.7, 28.0)">8</text><text xml:space="preserve" font-family="ArialMT" font-size="14.0" fill="#FFFFFF" transform="matrix(1.00, 0.00, -0.00, -1.00, 440.0, 28.0)">0</text><text xml:space="preserve" font-family="ArialMT" font-size="14.0" fill="#FFFFFF" transform="matrix(1.00, 0.00, -0.00, -1.00, 447.8, 28.0)">.</text><text xml:space="preserve" font-family="ArialMT" font-size="14.0" fill="#FFFFFF" transform="matrix(1.00, 0.00, -0.00, -1.00, 451.7, 28.0)">2</text></g></svg>