<?xml version="1.0" encoding="UTF-8" standalone="no"?><svg xmlns="http://www.w3.org/2000/svg" xmlns:xlink="http://www.w3.org/1999/xlink" clip-rule="evenodd" stroke-miterlimit="4.00" viewBox="0 0 720 405"><desc>SVG generated by Keynote</desc><defs></defs><g transform="matrix(1.00, 0.00, -0.00, -1.00, 0.0, 405.0)"><path d="M 0.0 405.0 L 720.0 405.0 L 720.0 0.0 L 0.0 0.0 Z M 0.0 405.0 " fill="#00517B"></path><path d="M 0.0 0.0 L 33.4 0.0 " fill="none" stroke="#039BE4" stroke-width="3.00" stroke-linejoin="round" transform="matrix(1.00, 0.00, 0.00, -1.00, 38.8, 305.8)"></path><text xml:space="preserve" font-family="Helvetica" font-size="30.0" fill="#FFFFFF" transform="matrix(1.00, 0.00, -0.00, -1.00, 38.0, 329.0)">D</text><text xml:space="preserve" font-family="Helvetica" font-size="30.0" fill="#FFFFFF" transform="matrix(1.00, 0.00, -0.00, -1.00, 59.7, 329.0)">a</text><text xml:space="preserve" font-family="Helvetica" font-size="30.0" fill="#FFFFFF" transform="matrix(1.00, 0.00, -0.00, -1.00, 76.4, 329.0)">t</text><text xml:space="preserve" font-family="Helvetica" font-size="30.0" fill="#FFFFFF" transform="matrix(1.00, 0.00, -0.00, -1.00, 84.7, 329.0)">a</text><text xml:space="preserve" font-family="Helvetica" font-size="30.0" fill="#FFFFFF" transform="matrix(1.00, 0.00, -0.00, -1.00, 101.4, 329.0)">:</text><text xml:space="preserve" font-family="Helvetica" font-size="30.0" fill="#FFFFFF" transform="matrix(1.00, 0.00, -0.00, -1.00, 109.7, 329.0)"> </text><text xml:space="preserve" font-family="Helvetica" font-size="30.0" fill="#FFFFFF" transform="matrix(1.00, 0.00, -0.00, -1.00, 118.0, 329.0)">1</text><text xml:space="preserve" font-family="Helvetica" font-size="30.0" fill="#FFFFFF" transform="matrix(1.00, 0.00, -0.00, -1.00, 132.5, 329.0)">1</text><text xml:space="preserve" font-family="Helvetica" font-size="30.0" fill="#FFFFFF" transform="matrix(1.00, 0.00, -0.00, -1.00, 149.2, 329.0)">0</text><text xml:space="preserve" font-family="Helvetica" font-size="30.0" fill="#FFFFFF" transform="matrix(1.00, 0.00, -0.00, -1.00, 165.9, 329.0)">0</text><text xml:space="preserve" font-family="Helvetica" font-size="30.0" fill="#FFFFFF" transform="matrix(1.00, 0.00, -0.00, -1.00, 182.6, 329.0)">0</text><text xml:space="preserve" font-family="Helvetica" font-size="30.0" fill="#FFFFFF" transform="matrix(1.00, 0.00, -0.00, -1.00, 199.3, 329.0)"> </text><text xml:space="preserve" font-family="Helvetica" font-size="30.0" fill="#FFFFFF" transform="matrix(1.00, 0.00, -0.00, -1.00, 207.6, 329.0)">j</text><text xml:space="preserve" font-family="Helvetica" font-size="30.0" fill="#FFFFFF" transform="matrix(1.00, 0.00, -0.00, -1.00, 214.3, 329.0)">o</text><text xml:space="preserve" font-family="Helvetica" font-size="30.0" fill="#FFFFFF" transform="matrix(1.00, 0.00, -0.00, -1.00, 231.0, 329.0)">b</text><text xml:space="preserve" font-family="Helvetica" font-size="30.0" fill="#FFFFFF" transform="matrix(1.00, 0.00, -0.00, -1.00, 247.7, 329.0)"> </text><text xml:space="preserve" font-family="Helvetica" font-size="30.0" fill="#FFFFFF" transform="matrix(1.00, 0.00, -0.00, -1.00, 256.0, 329.0)">p</text><text xml:space="preserve" font-family="Helvetica" font-size="30.0" fill="#FFFFFF" transform="matrix(1.00, 0.00, -0.00, -1.00, 272.7, 329.0)">o</text><text xml:space="preserve" font-family="Helvetica" font-size="30.0" fill="#FFFFFF" transform="matrix(1.00, 0.00, -0.00, -1.00, 289.4, 329.0)">s</text><text xml:space="preserve" font-family="Helvetica" font-size="30.0" fill="#FFFFFF" transform="matrix(1.00, 0.00, -0.00, -1.00, 304.4, 329.0)">t</text><text xml:space="preserve" font-family="Helvetica" font-size="30.0" fill="#FFFFFF" transform="matrix(1.00, 0.00, -0.00, -1.00, 312.7, 329.0)">i</text><text xml:space="preserve" font-family="Helvetica" font-size="30.0" fill="#FFFFFF" transform="matrix(1.00, 0.00, -0.00, -1.00, 319.4, 329.0)">n</text><text xml:space="preserve" font-family="Helvetica" font-size="30.0" fill="#FFFFFF" transform="matrix(1.00, 0.00, -0.00, -1.00, 336.1, 329.0)">g</text><text xml:space="preserve" font-family="Helvetica" font-size="30.0" fill="#FFFFFF" transform="matrix(1.00, 0.00, -0.00, -1.00, 352.8, 329.0)">s</text><text xml:space="preserve" font-family="Helvetica" font-size="30.0" fill="#FFFFFF" transform="matrix(1.00, 0.00, -0.00, -1.00, 367.8, 329.0)"> </text><text xml:space="preserve" font-family="Helvetica" font-size="30.0" fill="#FFFFFF" transform="matrix(1.00, 0.00, -0.00, -1.00, 376.1, 329.0)">f</text><text xml:space="preserve" font-family="Helvetica" font-size="30.0" fill="#FFFFFF" transform="matrix(1.00, 0.00, -0.00, -1.00, 384.4, 329.0)">r</text><text xml:space="preserve" font-family="Helvetica" font-size="30.0" fill="#FFFFFF" transform="matrix(1.00, 0.00, -0.00, -1.00, 394.4, 329.0)">o</text><text xml:space="preserve" font-family="Helvetica" font-size="30.0" fill="#FFFFFF" transform="matrix(1.00, 0.00, -0.00, -1.00, 411.1, 329.0)">m</text><text xml:space="preserve" font-family="Helvetica" font-size="30.0" fill="#FFFFFF" transform="matrix(1.00, 0.00, -0.00, -1.00, 436.1, 329.0)"> </text><text xml:space="preserve" font-family="Helvetica" font-size="30.0" fill="#FFFFFF" transform="matrix(1.00, 0.00, -0.00, -1.00, 444.4, 329.0)">I</text><text xml:space="preserve" font-family="Helvetica" font-size="30.0" fill="#FFFFFF" transform="matrix(1.00, 0.00, -0.00, -1.00, 452.7, 329.0)">n</text><text xml:space="preserve" font-family="Helvetica" font-size="30.0" fill="#FFFFFF" transform="matrix(1.00, 0.00, -0.00, -1.00, 469.4, 329.0)">d</text><text xml:space="preserve" font-family="Helvetica" font-size="30.0" fill="#FFFFFF" transform="matrix(1.00, 0.00, -0.00, -1.00, 486.1, 329.0)">e</text><text xml:space="preserve" font-family="Helvetica" font-size="30.0" fill="#FFFFFF" transform="matrix(1.00, 0.00, -0.00, -1.00, 502.8, 329.0)">e</text><text xml:space="preserve" font-family="Helvetica" font-size="30.0" fill="#FFFFFF" transform="matrix(1.00, 0.00, -0.00, -1.00, 519.5, 329.0)">d</text><image xlink:href="../../78704F77-AF35-408B-AFC6-FFADD09DBEB1/assets/5E651DA640BD3D3DAC5674123ECAF44B.png" width="11.00" height="11.00" transform="matrix(0.98, 0.00, -0.00, -0.98, 37.7, 126.5)"></image><text xml:space="preserve" font-family="Helvetica" font-size="18.0" fill="#FFFFFF" transform="matrix(1.00, 0.00, -0.00, -1.00, 52.0, 116.0)">B</text><text xml:space="preserve" font-family="Helvetica" font-size="18.0" fill="#FFFFFF" transform="matrix(1.00, 0.00, -0.00, -1.00, 64.0, 116.0)">u</text><text xml:space="preserve" font-family="Helvetica" font-size="18.0" fill="#FFFFFF" transform="matrix(1.00, 0.00, -0.00, -1.00, 74.0, 116.0)">z</text><text xml:space="preserve" font-family="Helvetica" font-size="18.0" fill="#FFFFFF" transform="matrix(1.00, 0.00, -0.00, -1.00, 83.0, 116.0)">z</text><text xml:space="preserve" font-family="Helvetica" font-size="18.0" fill="#FFFFFF" transform="matrix(1.00, 0.00, -0.00, -1.00, 92.0, 116.0)">w</text><text xml:space="preserve" font-family="Helvetica" font-size="18.0" fill="#FFFFFF" transform="matrix(1.00, 0.00, -0.00, -1.00, 105.0, 116.0)">o</text><text xml:space="preserve" font-family="Helvetica" font-size="18.0" fill="#FFFFFF" transform="matrix(1.00, 0.00, -0.00, -1.00, 115.0, 116.0)">r</text><text xml:space="preserve" font-family="Helvetica" font-size="18.0" fill="#FFFFFF" transform="matrix(1.00, 0.00, -0.00, -1.00, 121.0, 116.0)">d</text><text xml:space="preserve" font-family="Helvetica" font-size="18.0" fill="#FFFFFF" transform="matrix(1.00, 0.00, -0.00, -1.00, 131.0, 116.0)">s</text><text xml:space="preserve" font-family="Helvetica" font-size="18.0" fill="#FFFFFF" transform="matrix(1.00, 0.00, -0.00, -1.00, 140.0, 116.0)"> </text><text xml:space="preserve" font-family="Helvetica" font-size="18.0" fill="#FFFFFF" transform="matrix(1.00, 0.00, -0.00, -1.00, 145.0, 116.0)">(</text><text xml:space="preserve" font-family="Helvetica" font-size="18.0" fill="#FFFFFF" transform="matrix(1.00, 0.00, -0.00, -1.00, 151.0, 116.0)">“</text><text xml:space="preserve" font-family="Helvetica" font-size="18.0" fill="#FFFFFF" transform="matrix(1.00, 0.00, -0.00, -1.00, 157.0, 116.0)">w</text><text xml:space="preserve" font-family="Helvetica" font-size="18.0" fill="#FFFFFF" transform="matrix(1.00, 0.00, -0.00, -1.00, 170.0, 116.0)">o</text><text xml:space="preserve" font-family="Helvetica" font-size="18.0" fill="#FFFFFF" transform="matrix(1.00, 0.00, -0.00, -1.00, 180.0, 116.0)">r</text><text xml:space="preserve" font-family="Helvetica" font-size="18.0" fill="#FFFFFF" transform="matrix(1.00, 0.00, -0.00, -1.00, 186.0, 116.0)">l</text><text xml:space="preserve" font-family="Helvetica" font-size="18.0" fill="#FFFFFF" transform="matrix(1.00, 0.00, -0.00, -1.00, 190.0, 116.0)">d</text><text xml:space="preserve" font-family="Helvetica" font-size="18.0" fill="#FFFFFF" transform="matrix(1.00, 0.00, -0.00, -1.00, 200.1, 116.0)">-</text><text xml:space="preserve" font-family="Helvetica" font-size="18.0" fill="#FFFFFF" transform="matrix(1.00, 0.00, -0.00, -1.00, 206.1, 116.0)">c</text><text xml:space="preserve" font-family="Helvetica" font-size="18.0" fill="#FFFFFF" transform="matrix(1.00, 0.00, -0.00, -1.00, 215.1, 116.0)">l</text><text xml:space="preserve" font-family="Helvetica" font-size="18.0" fill="#FFFFFF" transform="matrix(1.00, 0.00, -0.00, -1.00, 219.1, 116.0)">a</text><text xml:space="preserve" font-family="Helvetica" font-size="18.0" fill="#FFFFFF" transform="matrix(1.00, 0.00, -0.00, -1.00, 229.1, 116.0)">s</text><text xml:space="preserve" font-family="Helvetica" font-size="18.0" fill="#FFFFFF" transform="matrix(1.00, 0.00, -0.00, -1.00, 238.1, 116.0)">s</text><text xml:space="preserve" font-family="Helvetica" font-size="18.0" fill="#FFFFFF" transform="matrix(1.00, 0.00, -0.00, -1.00, 247.1, 116.0)">”</text><text xml:space="preserve" font-family="Helvetica" font-size="18.0" fill="#FFFFFF" transform="matrix(1.00, 0.00, -0.00, -1.00, 253.1, 116.0)">,</text><text xml:space="preserve" font-family="Helvetica" font-size="18.0" fill="#FFFFFF" transform="matrix(1.00, 0.00, -0.00, -1.00, 258.1, 116.0)"> </text><text xml:space="preserve" font-family="Helvetica" font-size="18.0" fill="#FFFFFF" transform="matrix(1.00, 0.00, -0.00, -1.00, 263.1, 116.0)">“</text><text xml:space="preserve" font-family="Helvetica" font-size="18.0" fill="#FFFFFF" transform="matrix(1.00, 0.00, -0.00, -1.00, 269.1, 116.0)">d</text><text xml:space="preserve" font-family="Helvetica" font-size="18.0" fill="#FFFFFF" transform="matrix(1.00, 0.00, -0.00, -1.00, 279.1, 116.0)">r</text><text xml:space="preserve" font-family="Helvetica" font-size="18.0" fill="#FFFFFF" transform="matrix(1.00, 0.00, -0.00, -1.00, 285.1, 116.0)">i</text><text xml:space="preserve" font-family="Helvetica" font-size="18.0" fill="#FFFFFF" transform="matrix(1.00, 0.00, -0.00, -1.00, 289.1, 116.0)">v</text><text xml:space="preserve" font-family="Helvetica" font-size="18.0" fill="#FFFFFF" transform="matrix(1.00, 0.00, -0.00, -1.00, 298.1, 116.0)">e</text><text xml:space="preserve" font-family="Helvetica" font-size="18.0" fill="#FFFFFF" transform="matrix(1.00, 0.00, -0.00, -1.00, 308.1, 116.0)">n</text><text xml:space="preserve" font-family="Helvetica" font-size="18.0" fill="#FFFFFF" transform="matrix(1.00, 0.00, -0.00, -1.00, 318.1, 116.0)">”</text><text xml:space="preserve" font-family="Helvetica" font-size="18.0" fill="#FFFFFF" transform="matrix(1.00, 0.00, -0.00, -1.00, 324.1, 116.0)">,</text><text xml:space="preserve" font-family="Helvetica" font-size="18.0" fill="#FFFFFF" transform="matrix(1.00, 0.00, -0.00, -1.00, 329.1, 116.0)"> </text><text xml:space="preserve" font-family="Helvetica" font-size="18.0" fill="#FFFFFF" transform="matrix(1.00, 0.00, -0.00, -1.00, 334.1, 116.0)">“</text><text xml:space="preserve" font-family="Helvetica" font-size="18.0" fill="#FFFFFF" transform="matrix(1.00, 0.00, -0.00, -1.00, 340.1, 116.0)">e</text><text xml:space="preserve" font-family="Helvetica" font-size="18.0" fill="#FFFFFF" transform="matrix(1.00, 0.00, -0.00, -1.00, 350.1, 116.0)">x</text><text xml:space="preserve" font-family="Helvetica" font-size="18.0" fill="#FFFFFF" transform="matrix(1.00, 0.00, -0.00, -1.00, 359.1, 116.0)">c</text><text xml:space="preserve" font-family="Helvetica" font-size="18.0" fill="#FFFFFF" transform="matrix(1.00, 0.00, -0.00, -1.00, 368.1, 116.0)">i</text><text xml:space="preserve" font-family="Helvetica" font-size="18.0" fill="#FFFFFF" transform="matrix(1.00, 0.00, -0.00, -1.00, 372.1, 116.0)">t</text><text xml:space="preserve" font-family="Helvetica" font-size="18.0" fill="#FFFFFF" transform="matrix(1.00, 0.00, -0.00, -1.00, 377.1, 116.0)">i</text><text xml:space="preserve" font-family="Helvetica" font-size="18.0" fill="#FFFFFF" transform="matrix(1.00, 0.00, -0.00, -1.00, 381.1, 116.0)">n</text><text xml:space="preserve" font-family="Helvetica" font-size="18.0" fill="#FFFFFF" transform="matrix(1.00, 0.00, -0.00, -1.00, 391.1, 116.0)">g</text><text xml:space="preserve" font-family="Helvetica" font-size="18.0" fill="#FFFFFF" transform="matrix(1.00, 0.00, -0.00, -1.00, 401.1, 116.0)">”</text><text xml:space="preserve" font-family="Helvetica" font-size="18.0" fill="#FFFFFF" transform="matrix(1.00, 0.00, -0.00, -1.00, 407.1, 116.0)">,</text><text xml:space="preserve" font-family="Helvetica" font-size="18.0" fill="#FFFFFF" transform="matrix(1.00, 0.00, -0.00, -1.00, 412.1, 116.0)"> </text><text xml:space="preserve" font-family="Helvetica" font-size="18.0" fill="#FFFFFF" transform="matrix(1.00, 0.00, -0.00, -1.00, 417.1, 116.0)">“</text><text xml:space="preserve" font-family="Helvetica" font-size="18.0" fill="#FFFFFF" transform="matrix(1.00, 0.00, -0.00, -1.00, 423.1, 116.0)">m</text><text xml:space="preserve" font-family="Helvetica" font-size="18.0" fill="#FFFFFF" transform="matrix(1.00, 0.00, -0.00, -1.00, 438.1, 116.0)">i</text><text xml:space="preserve" font-family="Helvetica" font-size="18.0" fill="#FFFFFF" transform="matrix(1.00, 0.00, -0.00, -1.00, 442.1, 116.0)">s</text><text xml:space="preserve" font-family="Helvetica" font-size="18.0" fill="#FFFFFF" transform="matrix(1.00, 0.00, -0.00, -1.00, 451.1, 116.0)">s</text><text xml:space="preserve" font-family="Helvetica" font-size="18.0" fill="#FFFFFF" transform="matrix(1.00, 0.00, -0.00, -1.00, 460.1, 116.0)">i</text><text xml:space="preserve" font-family="Helvetica" font-size="18.0" fill="#FFFFFF" transform="matrix(1.00, 0.00, -0.00, -1.00, 464.1, 116.0)">o</text><text xml:space="preserve" font-family="Helvetica" font-size="18.0" fill="#FFFFFF" transform="matrix(1.00, 0.00, -0.00, -1.00, 474.1, 116.0)">n</text><text xml:space="preserve" font-family="Helvetica" font-size="18.0" fill="#FFFFFF" transform="matrix(1.00, 0.00, -0.00, -1.00, 484.1, 116.0)">”</text><text xml:space="preserve" font-family="Helvetica" font-size="18.0" fill="#FFFFFF" transform="matrix(1.00, 0.00, -0.00, -1.00, 490.1, 116.0)">)</text><image xlink:href="../../78704F77-AF35-408B-AFC6-FFADD09DBEB1/assets/5E651DA640BD3D3DAC5674123ECAF44B.png" width="11.00" height="11.00" transform="matrix(0.98, 0.00, -0.00, -0.98, 37.7, 85.2)"></image><text xml:space="preserve" font-family="Helvetica" font-size="18.0" fill="#FFFFFF" transform="matrix(1.00, 0.00, -0.00, -1.00, 52.0, 75.0)">V</text><text xml:space="preserve" font-family="Helvetica" font-size="18.0" fill="#FFFFFF" transform="matrix(1.00, 0.00, -0.00, -1.00, 62.7, 75.0)">a</text><text xml:space="preserve" font-family="Helvetica" font-size="18.0" fill="#FFFFFF" transform="matrix(1.00, 0.00, -0.00, -1.00, 72.7, 75.0)">r</text><text xml:space="preserve" font-family="Helvetica" font-size="18.0" fill="#FFFFFF" transform="matrix(1.00, 0.00, -0.00, -1.00, 78.7, 75.0)">y</text><text xml:space="preserve" font-family="Helvetica" font-size="18.0" fill="#FFFFFF" transform="matrix(1.00, 0.00, -0.00, -1.00, 87.7, 75.0)">i</text><text xml:space="preserve" font-family="Helvetica" font-size="18.0" fill="#FFFFFF" transform="matrix(1.00, 0.00, -0.00, -1.00, 91.7, 75.0)">n</text><text xml:space="preserve" font-family="Helvetica" font-size="18.0" fill="#FFFFFF" transform="matrix(1.00, 0.00, -0.00, -1.00, 101.7, 75.0)">g</text><text xml:space="preserve" font-family="Helvetica" font-size="18.0" fill="#FFFFFF" transform="matrix(1.00, 0.00, -0.00, -1.00, 111.7, 75.0)"> </text><text xml:space="preserve" font-family="Helvetica" font-size="18.0" fill="#FFFFFF" transform="matrix(1.00, 0.00, -0.00, -1.00, 116.7, 75.0)">l</text><text xml:space="preserve" font-family="Helvetica" font-size="18.0" fill="#FFFFFF" transform="matrix(1.00, 0.00, -0.00, -1.00, 120.7, 75.0)">e</text><text xml:space="preserve" font-family="Helvetica" font-size="18.0" fill="#FFFFFF" transform="matrix(1.00, 0.00, -0.00, -1.00, 130.7, 75.0)">n</text><text xml:space="preserve" font-family="Helvetica" font-size="18.0" fill="#FFFFFF" transform="matrix(1.00, 0.00, -0.00, -1.00, 140.7, 75.0)">g</text><text xml:space="preserve" font-family="Helvetica" font-size="18.0" fill="#FFFFFF" transform="matrix(1.00, 0.00, -0.00, -1.00, 150.8, 75.0)">t</text><text xml:space="preserve" font-family="Helvetica" font-size="18.0" fill="#FFFFFF" transform="matrix(1.00, 0.00, -0.00, -1.00, 155.8, 75.0)">h</text><text xml:space="preserve" font-family="Helvetica" font-size="18.0" fill="#FFFFFF" transform="matrix(1.00, 0.00, -0.00, -1.00, 165.8, 75.0)"> </text><text xml:space="preserve" font-family="Helvetica" font-size="18.0" fill="#FFFFFF" transform="matrix(1.00, 0.00, -0.00, -1.00, 170.8, 75.0)">a</text><text xml:space="preserve" font-family="Helvetica" font-size="18.0" fill="#FFFFFF" transform="matrix(1.00, 0.00, -0.00, -1.00, 180.8, 75.0)">n</text><text xml:space="preserve" font-family="Helvetica" font-size="18.0" fill="#FFFFFF" transform="matrix(1.00, 0.00, -0.00, -1.00, 190.8, 75.0)">d</text><text xml:space="preserve" font-family="Helvetica" font-size="18.0" fill="#FFFFFF" transform="matrix(1.00, 0.00, -0.00, -1.00, 200.8, 75.0)"> </text><text xml:space="preserve" font-family="Helvetica" font-size="18.0" fill="#FFFFFF" transform="matrix(1.00, 0.00, -0.00, -1.00, 205.8, 75.0)">d</text><text xml:space="preserve" font-family="Helvetica" font-size="18.0" fill="#FFFFFF" transform="matrix(1.00, 0.00, -0.00, -1.00, 215.8, 75.0)">e</text><text xml:space="preserve" font-family="Helvetica" font-size="18.0" fill="#FFFFFF" transform="matrix(1.00, 0.00, -0.00, -1.00, 225.8, 75.0)">t</text><text xml:space="preserve" font-family="Helvetica" font-size="18.0" fill="#FFFFFF" transform="matrix(1.00, 0.00, -0.00, -1.00, 230.8, 75.0)">a</text><text xml:space="preserve" font-family="Helvetica" font-size="18.0" fill="#FFFFFF" transform="matrix(1.00, 0.00, -0.00, -1.00, 240.9, 75.0)">i</text><text xml:space="preserve" font-family="Helvetica" font-size="18.0" fill="#FFFFFF" transform="matrix(1.00, 0.00, -0.00, -1.00, 244.9, 75.0)">l</text><text xml:space="preserve" font-family="Helvetica" font-size="18.0" fill="#FFFFFF" transform="matrix(1.00, 0.00, -0.00, -1.00, 248.9, 75.0)"> </text><text xml:space="preserve" font-family="Helvetica" font-size="18.0" fill="#FFFFFF" transform="matrix(1.00, 0.00, -0.00, -1.00, 253.9, 75.0)">o</text><text xml:space="preserve" font-family="Helvetica" font-size="18.0" fill="#FFFFFF" transform="matrix(1.00, 0.00, -0.00, -1.00, 263.9, 75.0)">f</text><text xml:space="preserve" font-family="Helvetica" font-size="18.0" fill="#FFFFFF" transform="matrix(1.00, 0.00, -0.00, -1.00, 268.9, 75.0)"> </text><text xml:space="preserve" font-family="Helvetica" font-size="18.0" fill="#FFFFFF" transform="matrix(1.00, 0.00, -0.00, -1.00, 273.9, 75.0)">d</text><text xml:space="preserve" font-family="Helvetica" font-size="18.0" fill="#FFFFFF" transform="matrix(1.00, 0.00, -0.00, -1.00, 283.9, 75.0)">e</text><text xml:space="preserve" font-family="Helvetica" font-size="18.0" fill="#FFFFFF" transform="matrix(1.00, 0.00, -0.00, -1.00, 293.9, 75.0)">s</text><text xml:space="preserve" font-family="Helvetica" font-size="18.0" fill="#FFFFFF" transform="matrix(1.00, 0.00, -0.00, -1.00, 302.9, 75.0)">c</text><text xml:space="preserve" font-family="Helvetica" font-size="18.0" fill="#FFFFFF" transform="matrix(1.00, 0.00, -0.00, -1.00, 311.9, 75.0)">r</text><text xml:space="preserve" font-family="Helvetica" font-size="18.0" fill="#FFFFFF" transform="matrix(1.00, 0.00, -0.00, -1.00, 317.9, 75.0)">i</text><text xml:space="preserve" font-family="Helvetica" font-size="18.0" fill="#FFFFFF" transform="matrix(1.00, 0.00, -0.00, -1.00, 321.9, 75.0)">p</text><text xml:space="preserve" font-family="Helvetica" font-size="18.0" fill="#FFFFFF" transform="matrix(1.00, 0.00, -0.00, -1.00, 331.9, 75.0)">t</text><text xml:space="preserve" font-family="Helvetica" font-size="18.0" fill="#FFFFFF" transform="matrix(1.00, 0.00, -0.00, -1.00, 336.9, 75.0)">i</text><text xml:space="preserve" font-family="Helvetica" font-size="18.0" fill="#FFFFFF" transform="matrix(1.00, 0.00, -0.00, -1.00, 340.9, 75.0)">o</text><text xml:space="preserve" font-family="Helvetica" font-size="18.0" fill="#FFFFFF" transform="matrix(1.00, 0.00, -0.00, -1.00, 350.9, 75.0)">n</text><image xlink:href="../../78704F77-AF35-408B-AFC6-FFADD09DBEB1/assets/5E651DA640BD3D3DAC5674123ECAF44B.png" width="11.00" height="11.00" transform="matrix(0.98, 0.00, -0.00, -0.98, 37.7, 43.9)"></image><text xml:space="preserve" font-family="Helvetica" font-size="18.0" fill="#FFFFFF" transform="matrix(1.00, 0.00, -0.00, -1.00, 52.0, 34.0)">D</text><text xml:space="preserve" font-family="Helvetica" font-size="18.0" fill="#FFFFFF" transform="matrix(1.00, 0.00, -0.00, -1.00, 65.0, 34.0)">i</text><text xml:space="preserve" font-family="Helvetica" font-size="18.0" fill="#FFFFFF" transform="matrix(1.00, 0.00, -0.00, -1.00, 69.0, 34.0)">f</text><text xml:space="preserve" font-family="Helvetica" font-size="18.0" fill="#FFFFFF" transform="matrix(1.00, 0.00, -0.00, -1.00, 73.7, 34.0)">f</text><text xml:space="preserve" font-family="Helvetica" font-size="18.0" fill="#FFFFFF" transform="matrix(1.00, 0.00, -0.00, -1.00, 78.7, 34.0)">i</text><text xml:space="preserve" font-family="Helvetica" font-size="18.0" fill="#FFFFFF" transform="matrix(1.00, 0.00, -0.00, -1.00, 82.7, 34.0)">c</text><text xml:space="preserve" font-family="Helvetica" font-size="18.0" fill="#FFFFFF" transform="matrix(1.00, 0.00, -0.00, -1.00, 91.7, 34.0)">u</text><text xml:space="preserve" font-family="Helvetica" font-size="18.0" fill="#FFFFFF" transform="matrix(1.00, 0.00, -0.00, -1.00, 101.7, 34.0)">l</text><text xml:space="preserve" font-family="Helvetica" font-size="18.0" fill="#FFFFFF" transform="matrix(1.00, 0.00, -0.00, -1.00, 105.7, 34.0)">t</text><text xml:space="preserve" font-family="Helvetica" font-size="18.0" fill="#FFFFFF" transform="matrix(1.00, 0.00, -0.00, -1.00, 110.7, 34.0)"> </text><text xml:space="preserve" font-family="Helvetica" font-size="18.0" fill="#FFFFFF" transform="matrix(1.00, 0.00, -0.00, -1.00, 115.7, 34.0)">t</text><text xml:space="preserve" font-family="Helvetica" font-size="18.0" fill="#FFFFFF" transform="matrix(1.00, 0.00, -0.00, -1.00, 120.7, 34.0)">o</text><text xml:space="preserve" font-family="Helvetica" font-size="18.0" fill="#FFFFFF" transform="matrix(1.00, 0.00, -0.00, -1.00, 130.7, 34.0)"> </text><text xml:space="preserve" font-family="Helvetica" font-size="18.0" fill="#FFFFFF" transform="matrix(1.00, 0.00, -0.00, -1.00, 135.7, 34.0)">v</text><text xml:space="preserve" font-family="Helvetica" font-size="18.0" fill="#FFFFFF" transform="matrix(1.00, 0.00, -0.00, -1.00, 144.7, 34.0)">a</text><text xml:space="preserve" font-family="Helvetica" font-size="18.0" fill="#FFFFFF" transform="matrix(1.00, 0.00, -0.00, -1.00, 154.7, 34.0)">l</text><text xml:space="preserve" font-family="Helvetica" font-size="18.0" fill="#FFFFFF" transform="matrix(1.00, 0.00, -0.00, -1.00, 158.7, 34.0)">i</text><text xml:space="preserve" font-family="Helvetica" font-size="18.0" fill="#FFFFFF" transform="matrix(1.00, 0.00, -0.00, -1.00, 162.7, 34.0)">d</text><text xml:space="preserve" font-family="Helvetica" font-size="18.0" fill="#FFFFFF" transform="matrix(1.00, 0.00, -0.00, -1.00, 172.7, 34.0)">a</text><text xml:space="preserve" font-family="Helvetica" font-size="18.0" fill="#FFFFFF" transform="matrix(1.00, 0.00, -0.00, -1.00, 182.8, 34.0)">t</text><text xml:space="preserve" font-family="Helvetica" font-size="18.0" fill="#FFFFFF" transform="matrix(1.00, 0.00, -0.00, -1.00, 187.8, 34.0)">e</text><text xml:space="preserve" font-family="Helvetica" font-size="18.0" fill="#FFFFFF" transform="matrix(1.00, 0.00, -0.00, -1.00, 197.8, 34.0)">:</text><text xml:space="preserve" font-family="Helvetica" font-size="18.0" fill="#FFFFFF" transform="matrix(1.00, 0.00, -0.00, -1.00, 202.8, 34.0)"> </text><text xml:space="preserve" font-family="Helvetica-Bold" font-weight="bold" font-size="18.0" fill="#FFFFFF" transform="matrix(1.00, 0.00, -0.00, -1.00, 207.8, 34.0)">w</text><text xml:space="preserve" font-family="Helvetica-Bold" font-weight="bold" font-size="18.0" fill="#FFFFFF" transform="matrix(1.00, 0.00, -0.00, -1.00, 221.7, 34.0)">h</text><text xml:space="preserve" font-family="Helvetica-Bold" font-weight="bold" font-size="18.0" fill="#FFFFFF" transform="matrix(1.00, 0.00, -0.00, -1.00, 232.7, 34.0)">a</text><text xml:space="preserve" font-family="Helvetica-Bold" font-weight="bold" font-size="18.0" fill="#FFFFFF" transform="matrix(1.00, 0.00, -0.00, -1.00, 242.8, 34.0)">t</text><text xml:space="preserve" font-family="Helvetica-Bold" font-weight="bold" font-size="18.0" fill="#FFFFFF" transform="matrix(1.00, 0.00, -0.00, -1.00, 248.7, 34.0)"> </text><text xml:space="preserve" font-family="Helvetica-Bold" font-weight="bold" font-size="18.0" fill="#FFFFFF" transform="matrix(1.00, 0.00, -0.00, -1.00, 253.7, 34.0)">i</text><text xml:space="preserve" font-family="Helvetica-Bold" font-weight="bold" font-size="18.0" fill="#FFFFFF" transform="matrix(1.00, 0.00, -0.00, -1.00, 258.7, 34.0)">s</text><text xml:space="preserve" font-family="Helvetica-Bold" font-weight="bold" font-size="18.0" fill="#FFFFFF" transform="matrix(1.00, 0.00, -0.00, -1.00, 268.8, 34.0)"> </text><text xml:space="preserve" font-family="Helvetica-Bold" font-weight="bold" font-size="18.0" fill="#FFFFFF" transform="matrix(1.00, 0.00, -0.00, -1.00, 273.8, 34.0)">g</text><text xml:space="preserve" font-family="Helvetica-Bold" font-weight="bold" font-size="18.0" fill="#FFFFFF" transform="matrix(1.00, 0.00, -0.00, -1.00, 284.7, 34.0)">r</text><text xml:space="preserve" font-family="Helvetica-Bold" font-weight="bold" font-size="18.0" fill="#FFFFFF" transform="matrix(1.00, 0.00, -0.00, -1.00, 291.8, 34.0)">o</text><text xml:space="preserve" font-family="Helvetica-Bold" font-weight="bold" font-size="18.0" fill="#FFFFFF" transform="matrix(1.00, 0.00, -0.00, -1.00, 302.7, 34.0)">u</text><text xml:space="preserve" font-family="Helvetica-Bold" font-weight="bold" font-size="18.0" fill="#FFFFFF" transform="matrix(1.00, 0.00, -0.00, -1.00, 313.7, 34.0)">n</text><text xml:space="preserve" font-family="Helvetica-Bold" font-weight="bold" font-size="18.0" fill="#FFFFFF" transform="matrix(1.00, 0.00, -0.00, -1.00, 324.7, 34.0)">d</text><text xml:space="preserve" font-family="Helvetica-Bold" font-weight="bold" font-size="18.0" fill="#FFFFFF" transform="matrix(1.00, 0.00, -0.00, -1.00, 335.7, 34.0)"> </text><text xml:space="preserve" font-family="Helvetica-Bold" font-weight="bold" font-size="18.0" fill="#FFFFFF" transform="matrix(1.00, 0.00, -0.00, -1.00, 340.7, 34.0)">t</text><text xml:space="preserve" font-family="Helvetica-Bold" font-weight="bold" font-size="18.0" fill="#FFFFFF" transform="matrix(1.00, 0.00, -0.00, -1.00, 346.7, 34.0)">r</text><text xml:space="preserve" font-family="Helvetica-Bold" font-weight="bold" font-size="18.0" fill="#FFFFFF" transform="matrix(1.00, 0.00, -0.00, -1.00, 353.7, 34.0)">u</text><text xml:space="preserve" font-family="Helvetica-Bold" font-weight="bold" font-size="18.0" fill="#FFFFFF" transform="matrix(1.00, 0.00, -0.00, -1.00, 364.7, 34.0)">t</text><text xml:space="preserve" font-family="Helvetica-Bold" font-weight="bold" font-size="18.0" fill="#FFFFFF" transform="matrix(1.00, 0.00, -0.00, -1.00, 370.7, 34.0)">h</text><text xml:space="preserve" font-family="Helvetica-Bold" font-weight="bold" font-size="18.0" fill="#FFFFFF" transform="matrix(1.00, 0.00, -0.00, -1.00, 381.7, 34.0)">?</text><text xml:space="preserve" font-family="Helvetica" font-size="30.0" fill="#FFFFFF" transform="matrix(1.00, 0.00, -0.00, -1.00, 38.0, 151.0)">S</text><text xml:space="preserve" font-family="Helvetica" font-size="30.0" fill="#FFFFFF" transform="matrix(1.00, 0.00, -0.00, -1.00, 58.0, 151.0)">p</text><text xml:space="preserve" font-family="Helvetica" font-size="30.0" fill="#FFFFFF" transform="matrix(1.00, 0.00, -0.00, -1.00, 74.7, 151.0)">e</text><text xml:space="preserve" font-family="Helvetica" font-size="30.0" fill="#FFFFFF" transform="matrix(1.00, 0.00, -0.00, -1.00, 91.4, 151.0)">c</text><text xml:space="preserve" font-family="Helvetica" font-size="30.0" fill="#FFFFFF" transform="matrix(1.00, 0.00, -0.00, -1.00, 106.4, 151.0)">i</text><text xml:space="preserve" font-family="Helvetica" font-size="30.0" fill="#FFFFFF" transform="matrix(1.00, 0.00, -0.00, -1.00, 113.1, 151.0)">f</text><text xml:space="preserve" font-family="Helvetica" font-size="30.0" fill="#FFFFFF" transform="matrix(1.00, 0.00, -0.00, -1.00, 121.4, 151.0)">i</text><text xml:space="preserve" font-family="Helvetica" font-size="30.0" fill="#FFFFFF" transform="matrix(1.00, 0.00, -0.00, -1.00, 128.1, 151.0)">c</text><text xml:space="preserve" font-family="Helvetica" font-size="30.0" fill="#FFFFFF" transform="matrix(1.00, 0.00, -0.00, -1.00, 143.1, 151.0)"> </text><text xml:space="preserve" font-family="Helvetica" font-size="30.0" fill="#FFFFFF" transform="matrix(1.00, 0.00, -0.00, -1.00, 151.4, 151.0)">d</text><text xml:space="preserve" font-family="Helvetica" font-size="30.0" fill="#FFFFFF" transform="matrix(1.00, 0.00, -0.00, -1.00, 168.1, 151.0)">a</text><text xml:space="preserve" font-family="Helvetica" font-size="30.0" fill="#FFFFFF" transform="matrix(1.00, 0.00, -0.00, -1.00, 184.8, 151.0)">t</text><text xml:space="preserve" font-family="Helvetica" font-size="30.0" fill="#FFFFFF" transform="matrix(1.00, 0.00, -0.00, -1.00, 193.1, 151.0)">a</text><text xml:space="preserve" font-family="Helvetica" font-size="30.0" fill="#FFFFFF" transform="matrix(1.00, 0.00, -0.00, -1.00, 209.8, 151.0)"> </text><text xml:space="preserve" font-family="Helvetica" font-size="30.0" fill="#FFFFFF" transform="matrix(1.00, 0.00, -0.00, -1.00, 218.1, 151.0)">c</text><text xml:space="preserve" font-family="Helvetica" font-size="30.0" fill="#FFFFFF" transform="matrix(1.00, 0.00, -0.00, -1.00, 233.1, 151.0)">h</text><text xml:space="preserve" font-family="Helvetica" font-size="30.0" fill="#FFFFFF" transform="matrix(1.00, 0.00, -0.00, -1.00, 249.8, 151.0)">a</text><text xml:space="preserve" font-family="Helvetica" font-size="30.0" fill="#FFFFFF" transform="matrix(1.00, 0.00, -0.00, -1.00, 266.5, 151.0)">l</text><text xml:space="preserve" font-family="Helvetica" font-size="30.0" fill="#FFFFFF" transform="matrix(1.00, 0.00, -0.00, -1.00, 273.2, 151.0)">l</text><text xml:space="preserve" font-family="Helvetica" font-size="30.0" fill="#FFFFFF" transform="matrix(1.00, 0.00, -0.00, -1.00, 279.8, 151.0)">e</text><text xml:space="preserve" font-family="Helvetica" font-size="30.0" fill="#FFFFFF" transform="matrix(1.00, 0.00, -0.00, -1.00, 296.5, 151.0)">n</text><text xml:space="preserve" font-family="Helvetica" font-size="30.0" fill="#FFFFFF" transform="matrix(1.00, 0.00, -0.00, -1.00, 313.2, 151.0)">g</text><text xml:space="preserve" font-family="Helvetica" font-size="30.0" fill="#FFFFFF" transform="matrix(1.00, 0.00, -0.00, -1.00, 329.9, 151.0)">e</text><text xml:space="preserve" font-family="Helvetica" font-size="30.0" fill="#FFFFFF" transform="matrix(1.00, 0.00, -0.00, -1.00, 346.6, 151.0)">s</text><text xml:space="preserve" font-family="Helvetica" font-size="30.0" fill="#FFFFFF" transform="matrix(1.00, 0.00, -0.00, -1.00, 361.6, 151.0)">:</text><image xlink:href="../../78704F77-AF35-408B-AFC6-FFADD09DBEB1/assets/5E651DA640BD3D3DAC5674123ECAF44B.png" width="11.00" height="11.00" transform="matrix(0.98, 0.00, -0.00, -0.98, 37.7, 281.8)"></image><text xml:space="preserve" font-family="Helvetica" font-size="18.0" fill="#FFFFFF" transform="matrix(1.00, 0.00, -0.00, -1.00, 52.0, 272.0)">L</text><text xml:space="preserve" font-family="Helvetica" font-size="18.0" fill="#FFFFFF" transform="matrix(1.00, 0.00, -0.00, -1.00, 62.0, 272.0)">o</text><text xml:space="preserve" font-family="Helvetica" font-size="18.0" fill="#FFFFFF" transform="matrix(1.00, 0.00, -0.00, -1.00, 72.0, 272.0)">o</text><text xml:space="preserve" font-family="Helvetica" font-size="18.0" fill="#FFFFFF" transform="matrix(1.00, 0.00, -0.00, -1.00, 82.0, 272.0)">k</text><text xml:space="preserve" font-family="Helvetica" font-size="18.0" fill="#FFFFFF" transform="matrix(1.00, 0.00, -0.00, -1.00, 91.0, 272.0)"> </text><text xml:space="preserve" font-family="Helvetica" font-size="18.0" fill="#FFFFFF" transform="matrix(1.00, 0.00, -0.00, -1.00, 96.0, 272.0)">f</text><text xml:space="preserve" font-family="Helvetica" font-size="18.0" fill="#FFFFFF" transform="matrix(1.00, 0.00, -0.00, -1.00, 101.0, 272.0)">o</text><text xml:space="preserve" font-family="Helvetica" font-size="18.0" fill="#FFFFFF" transform="matrix(1.00, 0.00, -0.00, -1.00, 111.1, 272.0)">r</text><text xml:space="preserve" font-family="Helvetica" font-size="18.0" fill="#FFFFFF" transform="matrix(1.00, 0.00, -0.00, -1.00, 117.0, 272.0)"> </text><text xml:space="preserve" font-family="Helvetica" font-size="18.0" fill="#FFFFFF" transform="matrix(1.00, 0.00, -0.00, -1.00, 122.0, 272.0)">“</text><text xml:space="preserve" font-family="Helvetica" font-size="18.0" fill="#FFFFFF" transform="matrix(1.00, 0.00, -0.00, -1.00, 128.0, 272.0)">D</text><text xml:space="preserve" font-family="Helvetica" font-size="18.0" fill="#FFFFFF" transform="matrix(1.00, 0.00, -0.00, -1.00, 141.0, 272.0)">a</text><text xml:space="preserve" font-family="Helvetica" font-size="18.0" fill="#FFFFFF" transform="matrix(1.00, 0.00, -0.00, -1.00, 151.1, 272.0)">t</text><text xml:space="preserve" font-family="Helvetica" font-size="18.0" fill="#FFFFFF" transform="matrix(1.00, 0.00, -0.00, -1.00, 156.1, 272.0)">a</text><text xml:space="preserve" font-family="Helvetica" font-size="18.0" fill="#FFFFFF" transform="matrix(1.00, 0.00, -0.00, -1.00, 166.1, 272.0)"> </text><text xml:space="preserve" font-family="Helvetica" font-size="18.0" fill="#FFFFFF" transform="matrix(1.00, 0.00, -0.00, -1.00, 171.1, 272.0)">S</text><text xml:space="preserve" font-family="Helvetica" font-size="18.0" fill="#FFFFFF" transform="matrix(1.00, 0.00, -0.00, -1.00, 183.1, 272.0)">c</text><text xml:space="preserve" font-family="Helvetica" font-size="18.0" fill="#FFFFFF" transform="matrix(1.00, 0.00, -0.00, -1.00, 192.1, 272.0)">i</text><text xml:space="preserve" font-family="Helvetica" font-size="18.0" fill="#FFFFFF" transform="matrix(1.00, 0.00, -0.00, -1.00, 196.1, 272.0)">e</text><text xml:space="preserve" font-family="Helvetica" font-size="18.0" fill="#FFFFFF" transform="matrix(1.00, 0.00, -0.00, -1.00, 206.1, 272.0)">n</text><text xml:space="preserve" font-family="Helvetica" font-size="18.0" fill="#FFFFFF" transform="matrix(1.00, 0.00, -0.00, -1.00, 216.1, 272.0)">t</text><text xml:space="preserve" font-family="Helvetica" font-size="18.0" fill="#FFFFFF" transform="matrix(1.00, 0.00, -0.00, -1.00, 221.1, 272.0)">i</text><text xml:space="preserve" font-family="Helvetica" font-size="18.0" fill="#FFFFFF" transform="matrix(1.00, 0.00, -0.00, -1.00, 225.1, 272.0)">s</text><text xml:space="preserve" font-family="Helvetica" font-size="18.0" fill="#FFFFFF" transform="matrix(1.00, 0.00, -0.00, -1.00, 234.1, 272.0)">t</text><text xml:space="preserve" font-family="Helvetica" font-size="18.0" fill="#FFFFFF" transform="matrix(1.00, 0.00, -0.00, -1.00, 239.1, 272.0)">”</text><text xml:space="preserve" font-family="Helvetica" font-size="18.0" fill="#FFFFFF" transform="matrix(1.00, 0.00, -0.00, -1.00, 245.1, 272.0)">,</text><text xml:space="preserve" font-family="Helvetica" font-size="18.0" fill="#FFFFFF" transform="matrix(1.00, 0.00, -0.00, -1.00, 250.1, 272.0)"> </text><text xml:space="preserve" font-family="Helvetica" font-size="18.0" fill="#FFFFFF" transform="matrix(1.00, 0.00, -0.00, -1.00, 255.1, 272.0)">“</text><text xml:space="preserve" font-family="Helvetica" font-size="18.0" fill="#FFFFFF" transform="matrix(1.00, 0.00, -0.00, -1.00, 261.1, 272.0)">D</text><text xml:space="preserve" font-family="Helvetica" font-size="18.0" fill="#FFFFFF" transform="matrix(1.00, 0.00, -0.00, -1.00, 274.1, 272.0)">a</text><text xml:space="preserve" font-family="Helvetica" font-size="18.0" fill="#FFFFFF" transform="matrix(1.00, 0.00, -0.00, -1.00, 284.1, 272.0)">t</text><text xml:space="preserve" font-family="Helvetica" font-size="18.0" fill="#FFFFFF" transform="matrix(1.00, 0.00, -0.00, -1.00, 289.1, 272.0)">a</text><text xml:space="preserve" font-family="Helvetica" font-size="18.0" fill="#FFFFFF" transform="matrix(1.00, 0.00, -0.00, -1.00, 299.1, 272.0)"> </text><text xml:space="preserve" font-family="Helvetica" font-size="18.0" fill="#FFFFFF" transform="matrix(1.00, 0.00, -0.00, -1.00, 304.1, 272.0)">E</text><text xml:space="preserve" font-family="Helvetica" font-size="18.0" fill="#FFFFFF" transform="matrix(1.00, 0.00, -0.00, -1.00, 316.1, 272.0)">n</text><text xml:space="preserve" font-family="Helvetica" font-size="18.0" fill="#FFFFFF" transform="matrix(1.00, 0.00, -0.00, -1.00, 326.1, 272.0)">g</text><text xml:space="preserve" font-family="Helvetica" font-size="18.0" fill="#FFFFFF" transform="matrix(1.00, 0.00, -0.00, -1.00, 336.1, 272.0)">i</text><text xml:space="preserve" font-family="Helvetica" font-size="18.0" fill="#FFFFFF" transform="matrix(1.00, 0.00, -0.00, -1.00, 340.1, 272.0)">n</text><text xml:space="preserve" font-family="Helvetica" font-size="18.0" fill="#FFFFFF" transform="matrix(1.00, 0.00, -0.00, -1.00, 350.2, 272.0)">e</text><text xml:space="preserve" font-family="Helvetica" font-size="18.0" fill="#FFFFFF" transform="matrix(1.00, 0.00, -0.00, -1.00, 360.2, 272.0)">e</text><text xml:space="preserve" font-family="Helvetica" font-size="18.0" fill="#FFFFFF" transform="matrix(1.00, 0.00, -0.00, -1.00, 370.2, 272.0)">r</text><text xml:space="preserve" font-family="Helvetica" font-size="18.0" fill="#FFFFFF" transform="matrix(1.00, 0.00, -0.00, -1.00, 376.2, 272.0)">”</text><text xml:space="preserve" font-family="Helvetica" font-size="18.0" fill="#FFFFFF" transform="matrix(1.00, 0.00, -0.00, -1.00, 382.2, 272.0)">,</text><text xml:space="preserve" font-family="Helvetica" font-size="18.0" fill="#FFFFFF" transform="matrix(1.00, 0.00, -0.00, -1.00, 387.2, 272.0)"> </text><text xml:space="preserve" font-family="Helvetica" font-size="18.0" fill="#FFFFFF" transform="matrix(1.00, 0.00, -0.00, -1.00, 392.2, 272.0)">“</text><text xml:space="preserve" font-family="Helvetica" font-size="18.0" fill="#FFFFFF" transform="matrix(1.00, 0.00, -0.00, -1.00, 398.2, 272.0)">D</text><text xml:space="preserve" font-family="Helvetica" font-size="18.0" fill="#FFFFFF" transform="matrix(1.00, 0.00, -0.00, -1.00, 411.2, 272.0)">a</text><text xml:space="preserve" font-family="Helvetica" font-size="18.0" fill="#FFFFFF" transform="matrix(1.00, 0.00, -0.00, -1.00, 421.2, 272.0)">t</text><text xml:space="preserve" font-family="Helvetica" font-size="18.0" fill="#FFFFFF" transform="matrix(1.00, 0.00, -0.00, -1.00, 426.2, 272.0)">a</text><text xml:space="preserve" font-family="Helvetica" font-size="18.0" fill="#FFFFFF" transform="matrix(1.00, 0.00, -0.00, -1.00, 436.2, 272.0)"> </text><text xml:space="preserve" font-family="Helvetica" font-size="18.0" fill="#FFFFFF" transform="matrix(1.00, 0.00, -0.00, -1.00, 440.2, 272.0)">A</text><text xml:space="preserve" font-family="Helvetica" font-size="18.0" fill="#FFFFFF" transform="matrix(1.00, 0.00, -0.00, -1.00, 452.2, 272.0)">n</text><text xml:space="preserve" font-family="Helvetica" font-size="18.0" fill="#FFFFFF" transform="matrix(1.00, 0.00, -0.00, -1.00, 462.2, 272.0)">a</text><text xml:space="preserve" font-family="Helvetica" font-size="18.0" fill="#FFFFFF" transform="matrix(1.00, 0.00, -0.00, -1.00, 472.2, 272.0)">l</text><text xml:space="preserve" font-family="Helvetica" font-size="18.0" fill="#FFFFFF" transform="matrix(1.00, 0.00, -0.00, -1.00, 476.2, 272.0)">y</text><text xml:space="preserve" font-family="Helvetica" font-size="18.0" fill="#FFFFFF" transform="matrix(1.00, 0.00, -0.00, -1.00, 485.2, 272.0)">s</text><text xml:space="preserve" font-family="Helvetica" font-size="18.0" fill="#FFFFFF" transform="matrix(1.00, 0.00, -0.00, -1.00, 494.2, 272.0)">t</text><text xml:space="preserve" font-family="Helvetica" font-size="18.0" fill="#FFFFFF" transform="matrix(1.00, 0.00, -0.00, -1.00, 499.2, 272.0)">”</text><text xml:space="preserve" font-family="Helvetica" font-size="18.0" fill="#FFFFFF" transform="matrix(1.00, 0.00, -0.00, -1.00, 505.2, 272.0)"> </text><text xml:space="preserve" font-family="Helvetica" font-size="18.0" fill="#FFFFFF" transform="matrix(1.00, 0.00, -0.00, -1.00, 510.2, 272.0)">j</text><text xml:space="preserve" font-family="Helvetica" font-size="18.0" fill="#FFFFFF" transform="matrix(1.00, 0.00, -0.00, -1.00, 514.2, 272.0)">o</text><text xml:space="preserve" font-family="Helvetica" font-size="18.0" fill="#FFFFFF" transform="matrix(1.00, 0.00, -0.00, -1.00, 524.2, 272.0)">b</text><text xml:space="preserve" font-family="Helvetica" font-size="18.0" fill="#FFFFFF" transform="matrix(1.00, 0.00, -0.00, -1.00, 534.3, 272.0)"> </text><text xml:space="preserve" font-family="Helvetica" font-size="18.0" fill="#FFFFFF" transform="matrix(1.00, 0.00, -0.00, -1.00, 539.3, 272.0)">d</text><text xml:space="preserve" font-family="Helvetica" font-size="18.0" fill="#FFFFFF" transform="matrix(1.00, 0.00, -0.00, -1.00, 549.3, 272.0)">e</text><text xml:space="preserve" font-family="Helvetica" font-size="18.0" fill="#FFFFFF" transform="matrix(1.00, 0.00, -0.00, -1.00, 559.3, 272.0)">s</text><text xml:space="preserve" font-family="Helvetica" font-size="18.0" fill="#FFFFFF" transform="matrix(1.00, 0.00, -0.00, -1.00, 568.3, 272.0)">c</text><text xml:space="preserve" font-family="Helvetica" font-size="18.0" fill="#FFFFFF" transform="matrix(1.00, 0.00, -0.00, -1.00, 577.3, 272.0)">r</text><text xml:space="preserve" font-family="Helvetica" font-size="18.0" fill="#FFFFFF" transform="matrix(1.00, 0.00, -0.00, -1.00, 583.3, 272.0)">i</text><text xml:space="preserve" font-family="Helvetica" font-size="18.0" fill="#FFFFFF" transform="matrix(1.00, 0.00, -0.00, -1.00, 587.3, 272.0)">p</text><text xml:space="preserve" font-family="Helvetica" font-size="18.0" fill="#FFFFFF" transform="matrix(1.00, 0.00, -0.00, -1.00, 597.3, 272.0)">t</text><text xml:space="preserve" font-family="Helvetica" font-size="18.0" fill="#FFFFFF" transform="matrix(1.00, 0.00, -0.00, -1.00, 602.3, 272.0)">i</text><text xml:space="preserve" font-family="Helvetica" font-size="18.0" fill="#FFFFFF" transform="matrix(1.00, 0.00, -0.00, -1.00, 606.3, 272.0)">o</text><text xml:space="preserve" font-family="Helvetica" font-size="18.0" fill="#FFFFFF" transform="matrix(1.00, 0.00, -0.00, -1.00, 616.3, 272.0)">n</text><text xml:space="preserve" font-family="Helvetica" font-size="18.0" fill="#FFFFFF" transform="matrix(1.00, 0.00, -0.00, -1.00, 626.3, 272.0)">s</text><image xlink:href="../../78704F77-AF35-408B-AFC6-FFADD09DBEB1/assets/5E651DA640BD3D3DAC5674123ECAF44B.png" width="11.00" height="11.00" transform="matrix(0.98, 0.00, -0.00, -0.98, 37.7, 240.5)"></image><text xml:space="preserve" font-family="Helvetica" font-size="18.0" fill="#FFFFFF" transform="matrix(1.00, 0.00, -0.00, -1.00, 52.0, 230.0)">U</text><text xml:space="preserve" font-family="Helvetica" font-size="18.0" fill="#FFFFFF" transform="matrix(1.00, 0.00, -0.00, -1.00, 65.0, 230.0)">S</text><text xml:space="preserve" font-family="Helvetica" font-size="18.0" fill="#FFFFFF" transform="matrix(1.00, 0.00, -0.00, -1.00, 77.0, 230.0)"> </text><text xml:space="preserve" font-family="Helvetica" font-size="18.0" fill="#FFFFFF" transform="matrix(1.00, 0.00, -0.00, -1.00, 82.0, 230.0)">W</text><text xml:space="preserve" font-family="Helvetica" font-size="18.0" fill="#FFFFFF" transform="matrix(1.00, 0.00, -0.00, -1.00, 99.0, 230.0)">i</text><text xml:space="preserve" font-family="Helvetica" font-size="18.0" fill="#FFFFFF" transform="matrix(1.00, 0.00, -0.00, -1.00, 103.0, 230.0)">d</text><text xml:space="preserve" font-family="Helvetica" font-size="18.0" fill="#FFFFFF" transform="matrix(1.00, 0.00, -0.00, -1.00, 113.0, 230.0)">e</text></g></svg>