<?xml version="1.0" encoding="UTF-8" standalone="no"?><svg xmlns="http://www.w3.org/2000/svg" xmlns:xlink="http://www.w3.org/1999/xlink" clip-rule="evenodd" stroke-miterlimit="4.00" viewBox="0 0 720 405"><desc>SVG generated by Keynote</desc><defs></defs><g transform="matrix(1.00, 0.00, -0.00, -1.00, 0.0, 405.0)"><path d="M 0.0 405.0 L 720.0 405.0 L 720.0 0.0 L 0.0 0.0 Z M 0.0 405.0 " fill="#00517B"></path><path d="M 0.0 0.0 L 33.4 0.0 " fill="none" stroke="#039BE4" stroke-width="3.00" stroke-linejoin="round" transform="matrix(1.00, 0.00, 0.00, -1.00, 38.8, 305.8)"></path><text xml:space="preserve" font-family="Helvetica" font-size="26.1" fill="#FFFFFF" transform="matrix(1.00, 0.00, -0.00, -1.00, 38.0, 328.0)">S</text><text xml:space="preserve" font-family="Helvetica" font-size="26.1" fill="#FFFFFF" transform="matrix(1.00, 0.00, -0.00, -1.00, 55.4, 328.0)">e</text><text xml:space="preserve" font-family="Helvetica" font-size="26.1" fill="#FFFFFF" transform="matrix(1.00, 0.00, -0.00, -1.00, 69.9, 328.0)">a</text><text xml:space="preserve" font-family="Helvetica" font-size="26.1" fill="#FFFFFF" transform="matrix(1.00, 0.00, -0.00, -1.00, 84.5, 328.0)">r</text><text xml:space="preserve" font-family="Helvetica" font-size="26.1" fill="#FFFFFF" transform="matrix(1.00, 0.00, -0.00, -1.00, 93.1, 328.0)">c</text><text xml:space="preserve" font-family="Helvetica" font-size="26.1" fill="#FFFFFF" transform="matrix(1.00, 0.00, -0.00, -1.00, 106.2, 328.0)">h</text><text xml:space="preserve" font-family="Helvetica" font-size="26.1" fill="#FFFFFF" transform="matrix(1.00, 0.00, -0.00, -1.00, 120.7, 328.0)">i</text><text xml:space="preserve" font-family="Helvetica" font-size="26.1" fill="#FFFFFF" transform="matrix(1.00, 0.00, -0.00, -1.00, 126.5, 328.0)">n</text><text xml:space="preserve" font-family="Helvetica" font-size="26.1" fill="#FFFFFF" transform="matrix(1.00, 0.00, -0.00, -1.00, 141.0, 328.0)">g</text><text xml:space="preserve" font-family="Helvetica" font-size="26.1" fill="#FFFFFF" transform="matrix(1.00, 0.00, -0.00, -1.00, 155.6, 328.0)"> </text><text xml:space="preserve" font-family="Helvetica" font-size="26.1" fill="#FFFFFF" transform="matrix(1.00, 0.00, -0.00, -1.00, 162.8, 328.0)">f</text><text xml:space="preserve" font-family="Helvetica" font-size="26.1" fill="#FFFFFF" transform="matrix(1.00, 0.00, -0.00, -1.00, 170.1, 328.0)">o</text><text xml:space="preserve" font-family="Helvetica" font-size="26.1" fill="#FFFFFF" transform="matrix(1.00, 0.00, -0.00, -1.00, 184.6, 328.0)">r</text><text xml:space="preserve" font-family="Helvetica" font-size="26.1" fill="#FFFFFF" transform="matrix(1.00, 0.00, -0.00, -1.00, 193.3, 328.0)"> </text><text xml:space="preserve" font-family="Helvetica" font-size="26.1" fill="#FFFFFF" transform="matrix(1.00, 0.00, -0.00, -1.00, 200.5, 328.0)">d</text><text xml:space="preserve" font-family="Helvetica" font-size="26.1" fill="#FFFFFF" transform="matrix(1.00, 0.00, -0.00, -1.00, 215.0, 328.0)">a</text><text xml:space="preserve" font-family="Helvetica" font-size="26.1" fill="#FFFFFF" transform="matrix(1.00, 0.00, -0.00, -1.00, 229.6, 328.0)">t</text><text xml:space="preserve" font-family="Helvetica" font-size="26.1" fill="#FFFFFF" transform="matrix(1.00, 0.00, -0.00, -1.00, 236.8, 328.0)">a</text><text xml:space="preserve" font-family="Helvetica" font-size="26.1" fill="#FFFFFF" transform="matrix(1.00, 0.00, -0.00, -1.00, 251.3, 328.0)"> </text><text xml:space="preserve" font-family="Helvetica" font-size="26.1" fill="#FFFFFF" transform="matrix(1.00, 0.00, -0.00, -1.00, 258.6, 328.0)">s</text><text xml:space="preserve" font-family="Helvetica" font-size="26.1" fill="#FFFFFF" transform="matrix(1.00, 0.00, -0.00, -1.00, 271.6, 328.0)">c</text><text xml:space="preserve" font-family="Helvetica" font-size="26.1" fill="#FFFFFF" transform="matrix(1.00, 0.00, -0.00, -1.00, 284.7, 328.0)">i</text><text xml:space="preserve" font-family="Helvetica" font-size="26.1" fill="#FFFFFF" transform="matrix(1.00, 0.00, -0.00, -1.00, 290.5, 328.0)">e</text><text xml:space="preserve" font-family="Helvetica" font-size="26.1" fill="#FFFFFF" transform="matrix(1.00, 0.00, -0.00, -1.00, 305.0, 328.0)">n</text><text xml:space="preserve" font-family="Helvetica" font-size="26.1" fill="#FFFFFF" transform="matrix(1.00, 0.00, -0.00, -1.00, 319.5, 328.0)">c</text><text xml:space="preserve" font-family="Helvetica" font-size="26.1" fill="#FFFFFF" transform="matrix(1.00, 0.00, -0.00, -1.00, 332.6, 328.0)">e</text><text xml:space="preserve" font-family="Helvetica" font-size="26.1" fill="#FFFFFF" transform="matrix(1.00, 0.00, -0.00, -1.00, 347.1, 328.0)"> </text><text xml:space="preserve" font-family="Helvetica" font-size="26.1" fill="#FFFFFF" transform="matrix(1.00, 0.00, -0.00, -1.00, 354.3, 328.0)">j</text><text xml:space="preserve" font-family="Helvetica" font-size="26.1" fill="#FFFFFF" transform="matrix(1.00, 0.00, -0.00, -1.00, 360.1, 328.0)">o</text><text xml:space="preserve" font-family="Helvetica" font-size="26.1" fill="#FFFFFF" transform="matrix(1.00, 0.00, -0.00, -1.00, 374.7, 328.0)">b</text><text xml:space="preserve" font-family="Helvetica" font-size="26.1" fill="#FFFFFF" transform="matrix(1.00, 0.00, -0.00, -1.00, 389.2, 328.0)">s</text><text xml:space="preserve" font-family="Helvetica" font-size="26.1" fill="#FFFFFF" transform="matrix(1.00, 0.00, -0.00, -1.00, 402.2, 328.0)"> </text><text xml:space="preserve" font-family="Helvetica" font-size="26.1" fill="#FFFFFF" transform="matrix(1.00, 0.00, -0.00, -1.00, 409.5, 328.0)">i</text><text xml:space="preserve" font-family="Helvetica" font-size="26.1" fill="#FFFFFF" transform="matrix(1.00, 0.00, -0.00, -1.00, 415.3, 328.0)">s</text><text xml:space="preserve" font-family="Helvetica" font-size="26.1" fill="#FFFFFF" transform="matrix(1.00, 0.00, -0.00, -1.00, 428.3, 328.0)"> </text><text xml:space="preserve" font-family="Helvetica" font-size="26.1" fill="#FFFFFF" transform="matrix(1.00, 0.00, -0.00, -1.00, 435.6, 328.0)">t</text><text xml:space="preserve" font-family="Helvetica" font-size="26.1" fill="#FFFFFF" transform="matrix(1.00, 0.00, -0.00, -1.00, 442.8, 328.0)">i</text><text xml:space="preserve" font-family="Helvetica" font-size="26.1" fill="#FFFFFF" transform="matrix(1.00, 0.00, -0.00, -1.00, 448.6, 328.0)">r</text><text xml:space="preserve" font-family="Helvetica" font-size="26.1" fill="#FFFFFF" transform="matrix(1.00, 0.00, -0.00, -1.00, 457.3, 328.0)">i</text><text xml:space="preserve" font-family="Helvetica" font-size="26.1" fill="#FFFFFF" transform="matrix(1.00, 0.00, -0.00, -1.00, 463.1, 328.0)">n</text><text xml:space="preserve" font-family="Helvetica" font-size="26.1" fill="#FFFFFF" transform="matrix(1.00, 0.00, -0.00, -1.00, 477.6, 328.0)">g</text><text xml:space="preserve" font-family="Helvetica" font-size="26.1" fill="#FFFFFF" transform="matrix(1.00, 0.00, -0.00, -1.00, 492.2, 328.0)"> </text><text xml:space="preserve" font-family="Helvetica" font-size="26.1" fill="#FFFFFF" transform="matrix(1.00, 0.00, -0.00, -1.00, 499.4, 328.0)">a</text><text xml:space="preserve" font-family="Helvetica" font-size="26.1" fill="#FFFFFF" transform="matrix(1.00, 0.00, -0.00, -1.00, 513.9, 328.0)">n</text><text xml:space="preserve" font-family="Helvetica" font-size="26.1" fill="#FFFFFF" transform="matrix(1.00, 0.00, -0.00, -1.00, 528.4, 328.0)">d</text><text xml:space="preserve" font-family="Helvetica" font-size="26.1" fill="#FFFFFF" transform="matrix(1.00, 0.00, -0.00, -1.00, 543.0, 328.0)"> </text><text xml:space="preserve" font-family="Helvetica" font-size="26.1" fill="#FFFFFF" transform="matrix(1.00, 0.00, -0.00, -1.00, 550.2, 328.0)">d</text><text xml:space="preserve" font-family="Helvetica" font-size="26.1" fill="#FFFFFF" transform="matrix(1.00, 0.00, -0.00, -1.00, 564.7, 328.0)">e</text><text xml:space="preserve" font-family="Helvetica" font-size="26.1" fill="#FFFFFF" transform="matrix(1.00, 0.00, -0.00, -1.00, 579.3, 328.0)">p</text><text xml:space="preserve" font-family="Helvetica" font-size="26.1" fill="#FFFFFF" transform="matrix(1.00, 0.00, -0.00, -1.00, 593.8, 328.0)">r</text><text xml:space="preserve" font-family="Helvetica" font-size="26.1" fill="#FFFFFF" transform="matrix(1.00, 0.00, -0.00, -1.00, 602.5, 328.0)">e</text><text xml:space="preserve" font-family="Helvetica" font-size="26.1" fill="#FFFFFF" transform="matrix(1.00, 0.00, -0.00, -1.00, 617.0, 328.0)">s</text><text xml:space="preserve" font-family="Helvetica" font-size="26.1" fill="#FFFFFF" transform="matrix(1.00, 0.00, -0.00, -1.00, 630.0, 328.0)">s</text><text xml:space="preserve" font-family="Helvetica" font-size="26.1" fill="#FFFFFF" transform="matrix(1.00, 0.00, -0.00, -1.00, 643.1, 328.0)">i</text><text xml:space="preserve" font-family="Helvetica" font-size="26.1" fill="#FFFFFF" transform="matrix(1.00, 0.00, -0.00, -1.00, 648.9, 328.0)">n</text><text xml:space="preserve" font-family="Helvetica" font-size="26.1" fill="#FFFFFF" transform="matrix(1.00, 0.00, -0.00, -1.00, 663.4, 328.0)">g</text></g></svg>