<?xml version="1.0" encoding="UTF-8" standalone="no"?><svg xmlns="http://www.w3.org/2000/svg" xmlns:xlink="http://www.w3.org/1999/xlink" clip-rule="evenodd" stroke-miterlimit="4.00" viewBox="0 0 720 405"><desc>SVG generated by Keynote</desc><defs></defs><g transform="matrix(1.00, 0.00, -0.00, -1.00, 0.0, 405.0)"><path d="M 0.0 405.0 L 720.0 405.0 L 720.0 0.0 L 0.0 0.0 Z M 0.0 405.0 " fill="#00517B"></path><path d="M 0.0 88.6 L 0.0 0.0 L 85.2 0.0 " fill="none" stroke="#8BC34A" stroke-width="2.25" stroke-miterlimit="8.00" transform="matrix(1.00, 0.00, 0.00, -1.00, 120.1, 352.0)"></path><path d="M 0.0 88.6 L 0.0 0.0 L 85.2 0.0 " fill="none" stroke="#8BC34A" stroke-width="2.25" stroke-miterlimit="8.00" transform="matrix(-1.00, 0.00, 0.00, 1.00, 599.9, 53.2)"></path><path d="M 0.0 0.0 L 33.4 0.0 " fill="none" stroke="#039BE4" stroke-width="3.00" stroke-linejoin="round" transform="matrix(1.00, 0.00, 0.00, -1.00, 343.3, 183.2)"></path><text xml:space="preserve" font-family="Helvetica" font-size="40.0" fill="#FFFFFF" transform="matrix(1.00, 0.00, -0.00, -1.00, 279.0, 212.0)">J</text><text xml:space="preserve" font-family="Helvetica" font-size="40.0" fill="#FFFFFF" transform="matrix(1.00, 0.00, -0.00, -1.00, 299.0, 212.0)">o</text><text xml:space="preserve" font-family="Helvetica" font-size="40.0" fill="#FFFFFF" transform="matrix(1.00, 0.00, -0.00, -1.00, 321.3, 212.0)">b</text><text xml:space="preserve" font-family="Helvetica" font-size="40.0" fill="#FFFFFF" transform="matrix(1.00, 0.00, -0.00, -1.00, 343.5, 212.0)">m</text><text xml:space="preserve" font-family="Helvetica" font-size="40.0" fill="#FFFFFF" transform="matrix(1.00, 0.00, -0.00, -1.00, 376.8, 212.0)">a</text><text xml:space="preserve" font-family="Helvetica" font-size="40.0" fill="#FFFFFF" transform="matrix(1.00, 0.00, -0.00, -1.00, 399.1, 212.0)">s</text><text xml:space="preserve" font-family="Helvetica" font-size="40.0" fill="#FFFFFF" transform="matrix(1.00, 0.00, -0.00, -1.00, 419.1, 212.0)">h</text><text xml:space="preserve" font-family="Helvetica" font-size="24.0" fill="#8BC34A" transform="matrix(1.00, 0.00, -0.00, -1.00, 198.0, 134.0)">J</text><text xml:space="preserve" font-family="Helvetica" font-size="24.0" fill="#8BC34A" transform="matrix(1.00, 0.00, -0.00, -1.00, 210.0, 134.0)">o</text><text xml:space="preserve" font-family="Helvetica" font-size="24.0" fill="#8BC34A" transform="matrix(1.00, 0.00, -0.00, -1.00, 223.4, 134.0)">b</text><text xml:space="preserve" font-family="Helvetica" font-size="24.0" fill="#8BC34A" transform="matrix(1.00, 0.00, -0.00, -1.00, 236.7, 134.0)"> </text><text xml:space="preserve" font-family="Helvetica" font-size="24.0" fill="#8BC34A" transform="matrix(1.00, 0.00, -0.00, -1.00, 243.4, 134.0)">s</text><text xml:space="preserve" font-family="Helvetica" font-size="24.0" fill="#8BC34A" transform="matrix(1.00, 0.00, -0.00, -1.00, 255.4, 134.0)">e</text><text xml:space="preserve" font-family="Helvetica" font-size="24.0" fill="#8BC34A" transform="matrix(1.00, 0.00, -0.00, -1.00, 268.7, 134.0)">a</text><text xml:space="preserve" font-family="Helvetica" font-size="24.0" fill="#8BC34A" transform="matrix(1.00, 0.00, -0.00, -1.00, 282.1, 134.0)">r</text><text xml:space="preserve" font-family="Helvetica" font-size="24.0" fill="#8BC34A" transform="matrix(1.00, 0.00, -0.00, -1.00, 290.1, 134.0)">c</text><text xml:space="preserve" font-family="Helvetica" font-size="24.0" fill="#8BC34A" transform="matrix(1.00, 0.00, -0.00, -1.00, 302.1, 134.0)">h</text><text xml:space="preserve" font-family="Helvetica" font-size="24.0" fill="#8BC34A" transform="matrix(1.00, 0.00, -0.00, -1.00, 315.4, 134.0)">i</text><text xml:space="preserve" font-family="Helvetica" font-size="24.0" fill="#8BC34A" transform="matrix(1.00, 0.00, -0.00, -1.00, 320.8, 134.0)">n</text><text xml:space="preserve" font-family="Helvetica" font-size="24.0" fill="#8BC34A" transform="matrix(1.00, 0.00, -0.00, -1.00, 334.1, 134.0)">g</text><text xml:space="preserve" font-family="Helvetica" font-size="24.0" fill="#8BC34A" transform="matrix(1.00, 0.00, -0.00, -1.00, 347.5, 134.0)"> </text><text xml:space="preserve" font-family="Helvetica" font-size="24.0" fill="#8BC34A" transform="matrix(1.00, 0.00, -0.00, -1.00, 354.1, 134.0)">w</text><text xml:space="preserve" font-family="Helvetica" font-size="24.0" fill="#8BC34A" transform="matrix(1.00, 0.00, -0.00, -1.00, 371.5, 134.0)">i</text><text xml:space="preserve" font-family="Helvetica" font-size="24.0" fill="#8BC34A" transform="matrix(1.00, 0.00, -0.00, -1.00, 376.8, 134.0)">t</text><text xml:space="preserve" font-family="Helvetica" font-size="24.0" fill="#8BC34A" transform="matrix(1.00, 0.00, -0.00, -1.00, 383.5, 134.0)">h</text><text xml:space="preserve" font-family="Helvetica" font-size="24.0" fill="#8BC34A" transform="matrix(1.00, 0.00, -0.00, -1.00, 396.8, 134.0)">o</text><text xml:space="preserve" font-family="Helvetica" font-size="24.0" fill="#8BC34A" transform="matrix(1.00, 0.00, -0.00, -1.00, 410.2, 134.0)">u</text><text xml:space="preserve" font-family="Helvetica" font-size="24.0" fill="#8BC34A" transform="matrix(1.00, 0.00, -0.00, -1.00, 423.5, 134.0)">t</text><text xml:space="preserve" font-family="Helvetica" font-size="24.0" fill="#8BC34A" transform="matrix(1.00, 0.00, -0.00, -1.00, 430.2, 134.0)"> </text><text xml:space="preserve" font-family="Helvetica" font-size="24.0" fill="#8BC34A" transform="matrix(1.00, 0.00, -0.00, -1.00, 436.8, 134.0)">t</text><text xml:space="preserve" font-family="Helvetica" font-size="24.0" fill="#8BC34A" transform="matrix(1.00, 0.00, -0.00, -1.00, 443.5, 134.0)">h</text><text xml:space="preserve" font-family="Helvetica" font-size="24.0" fill="#8BC34A" transform="matrix(1.00, 0.00, -0.00, -1.00, 456.9, 134.0)">e</text><text xml:space="preserve" font-family="Helvetica" font-size="24.0" fill="#8BC34A" transform="matrix(1.00, 0.00, -0.00, -1.00, 470.2, 134.0)"> </text><text xml:space="preserve" font-family="Helvetica" font-size="24.0" fill="#8BC34A" transform="matrix(1.00, 0.00, -0.00, -1.00, 476.9, 134.0)">p</text><text xml:space="preserve" font-family="Helvetica" font-size="24.0" fill="#8BC34A" transform="matrix(1.00, 0.00, -0.00, -1.00, 490.2, 134.0)">a</text><text xml:space="preserve" font-family="Helvetica" font-size="24.0" fill="#8BC34A" transform="matrix(1.00, 0.00, -0.00, -1.00, 503.6, 134.0)">i</text><text xml:space="preserve" font-family="Helvetica" font-size="24.0" fill="#8BC34A" transform="matrix(1.00, 0.00, -0.00, -1.00, 508.9, 134.0)">n</text></g></svg>