<?xml version="1.0" encoding="UTF-8" standalone="no"?><svg xmlns="http://www.w3.org/2000/svg" xmlns:xlink="http://www.w3.org/1999/xlink" clip-rule="evenodd" stroke-miterlimit="4.00" viewBox="0 0 720 405"><desc>SVG generated by Keynote</desc><defs></defs><g transform="matrix(1.00, 0.00, -0.00, -1.00, 0.0, 405.0)"><path d="M 0.0 405.0 L 720.0 405.0 L 720.0 0.0 L 0.0 0.0 Z M 0.0 405.0 " fill="#00517B"></path><path d="M 0.0 0.0 L 33.4 0.0 " fill="none" stroke="#039BE4" stroke-width="3.00" stroke-linejoin="round" transform="matrix(1.00, 0.00, 0.00, -1.00, 38.8, 305.8)"></path><text xml:space="preserve" font-family="Helvetica" font-size="30.0" fill="#FFFFFF" transform="matrix(1.00, 0.00, -0.00, -1.00, 38.0, 329.0)">A</text><text xml:space="preserve" font-family="Helvetica" font-size="30.0" fill="#FFFFFF" transform="matrix(1.00, 0.00, -0.00, -1.00, 58.0, 329.0)">b</text><text xml:space="preserve" font-family="Helvetica" font-size="30.0" fill="#FFFFFF" transform="matrix(1.00, 0.00, -0.00, -1.00, 74.7, 329.0)">o</text><text xml:space="preserve" font-family="Helvetica" font-size="30.0" fill="#FFFFFF" transform="matrix(1.00, 0.00, -0.00, -1.00, 91.4, 329.0)">u</text><text xml:space="preserve" font-family="Helvetica" font-size="30.0" fill="#FFFFFF" transform="matrix(1.00, 0.00, -0.00, -1.00, 108.1, 329.0)">t</text><text xml:space="preserve" font-family="Helvetica" font-size="30.0" fill="#FFFFFF" transform="matrix(1.00, 0.00, -0.00, -1.00, 116.4, 329.0)"> </text><text xml:space="preserve" font-family="Helvetica" font-size="30.0" fill="#FFFFFF" transform="matrix(1.00, 0.00, -0.00, -1.00, 124.7, 329.0)">m</text><text xml:space="preserve" font-family="Helvetica" font-size="30.0" fill="#FFFFFF" transform="matrix(1.00, 0.00, -0.00, -1.00, 149.7, 329.0)">e</text><text xml:space="preserve" font-family="Helvetica" font-size="18.0" fill="#FFFFFF" transform="matrix(1.00, 0.00, -0.00, -1.00, 28.0, 184.0)">P</text><text xml:space="preserve" font-family="Helvetica" font-size="18.0" fill="#FFFFFF" transform="matrix(1.00, 0.00, -0.00, -1.00, 40.0, 184.0)">h</text><text xml:space="preserve" font-family="Helvetica" font-size="18.0" fill="#FFFFFF" transform="matrix(1.00, 0.00, -0.00, -1.00, 50.0, 184.0)">D</text><text xml:space="preserve" font-family="Helvetica" font-size="18.0" fill="#FFFFFF" transform="matrix(1.00, 0.00, -0.00, -1.00, 63.0, 184.0)"> </text><text xml:space="preserve" font-family="Helvetica" font-size="18.0" fill="#FFFFFF" transform="matrix(1.00, 0.00, -0.00, -1.00, 67.7, 184.0)">T</text><text xml:space="preserve" font-family="Helvetica" font-size="18.0" fill="#FFFFFF" transform="matrix(1.00, 0.00, -0.00, -1.00, 78.7, 184.0)">h</text><text xml:space="preserve" font-family="Helvetica" font-size="18.0" fill="#FFFFFF" transform="matrix(1.00, 0.00, -0.00, -1.00, 88.7, 184.0)">e</text><text xml:space="preserve" font-family="Helvetica" font-size="18.0" fill="#FFFFFF" transform="matrix(1.00, 0.00, -0.00, -1.00, 98.7, 184.0)">o</text><text xml:space="preserve" font-family="Helvetica" font-size="18.0" fill="#FFFFFF" transform="matrix(1.00, 0.00, -0.00, -1.00, 108.7, 184.0)">r</text><text xml:space="preserve" font-family="Helvetica" font-size="18.0" fill="#FFFFFF" transform="matrix(1.00, 0.00, -0.00, -1.00, 114.7, 184.0)">e</text><text xml:space="preserve" font-family="Helvetica" font-size="18.0" fill="#FFFFFF" transform="matrix(1.00, 0.00, -0.00, -1.00, 124.7, 184.0)">t</text><text xml:space="preserve" font-family="Helvetica" font-size="18.0" fill="#FFFFFF" transform="matrix(1.00, 0.00, -0.00, -1.00, 129.7, 184.0)">i</text><text xml:space="preserve" font-family="Helvetica" font-size="18.0" fill="#FFFFFF" transform="matrix(1.00, 0.00, -0.00, -1.00, 133.7, 184.0)">c</text><text xml:space="preserve" font-family="Helvetica" font-size="18.0" fill="#FFFFFF" transform="matrix(1.00, 0.00, -0.00, -1.00, 142.7, 184.0)">a</text><text xml:space="preserve" font-family="Helvetica" font-size="18.0" fill="#FFFFFF" transform="matrix(1.00, 0.00, -0.00, -1.00, 152.8, 184.0)">l</text><text xml:space="preserve" font-family="Helvetica" font-size="18.0" fill="#FFFFFF" transform="matrix(1.00, 0.00, -0.00, -1.00, 156.8, 184.0)"> </text><text xml:space="preserve" font-family="Helvetica" font-size="18.0" fill="#FFFFFF" transform="matrix(1.00, 0.00, -0.00, -1.00, 161.8, 184.0)">P</text><text xml:space="preserve" font-family="Helvetica" font-size="18.0" fill="#FFFFFF" transform="matrix(1.00, 0.00, -0.00, -1.00, 173.8, 184.0)">h</text><text xml:space="preserve" font-family="Helvetica" font-size="18.0" fill="#FFFFFF" transform="matrix(1.00, 0.00, -0.00, -1.00, 183.8, 184.0)">y</text><text xml:space="preserve" font-family="Helvetica" font-size="18.0" fill="#FFFFFF" transform="matrix(1.00, 0.00, -0.00, -1.00, 192.8, 184.0)">s</text><text xml:space="preserve" font-family="Helvetica" font-size="18.0" fill="#FFFFFF" transform="matrix(1.00, 0.00, -0.00, -1.00, 201.8, 184.0)">i</text><text xml:space="preserve" font-family="Helvetica" font-size="18.0" fill="#FFFFFF" transform="matrix(1.00, 0.00, -0.00, -1.00, 205.8, 184.0)">c</text><text xml:space="preserve" font-family="Helvetica" font-size="18.0" fill="#FFFFFF" transform="matrix(1.00, 0.00, -0.00, -1.00, 214.8, 184.0)">s</text><text xml:space="preserve" font-family="Helvetica" font-size="18.0" fill="#FFFFFF" transform="matrix(1.00, 0.00, -0.00, -1.00, 223.8, 184.0)">,</text><text xml:space="preserve" font-family="Helvetica" font-size="18.0" fill="#FFFFFF" transform="matrix(1.00, 0.00, -0.00, -1.00, 228.8, 184.0)"> </text><text xml:space="preserve" font-family="Helvetica" font-size="18.0" fill="#FFFFFF" transform="matrix(1.00, 0.00, -0.00, -1.00, 233.8, 184.0)">K</text><text xml:space="preserve" font-family="Helvetica" font-size="18.0" fill="#FFFFFF" transform="matrix(1.00, 0.00, -0.00, -1.00, 245.8, 184.0)">i</text><text xml:space="preserve" font-family="Helvetica" font-size="18.0" fill="#FFFFFF" transform="matrix(1.00, 0.00, -0.00, -1.00, 249.8, 184.0)">n</text><text xml:space="preserve" font-family="Helvetica" font-size="18.0" fill="#FFFFFF" transform="matrix(1.00, 0.00, -0.00, -1.00, 259.8, 184.0)">g</text><text xml:space="preserve" font-family="Helvetica" font-size="18.0" fill="#FFFFFF" transform="matrix(1.00, 0.00, -0.00, -1.00, 269.8, 184.0)">’</text><text xml:space="preserve" font-family="Helvetica" font-size="18.0" fill="#FFFFFF" transform="matrix(1.00, 0.00, -0.00, -1.00, 273.5, 184.0)">s</text><text xml:space="preserve" font-family="Helvetica" font-size="18.0" fill="#FFFFFF" transform="matrix(1.00, 0.00, -0.00, -1.00, 282.5, 184.0)"> </text><text xml:space="preserve" font-family="Helvetica" font-size="18.0" fill="#FFFFFF" transform="matrix(1.00, 0.00, -0.00, -1.00, 287.5, 184.0)">C</text><text xml:space="preserve" font-family="Helvetica" font-size="18.0" fill="#FFFFFF" transform="matrix(1.00, 0.00, -0.00, -1.00, 300.5, 184.0)">o</text><text xml:space="preserve" font-family="Helvetica" font-size="18.0" fill="#FFFFFF" transform="matrix(1.00, 0.00, -0.00, -1.00, 310.5, 184.0)">l</text><text xml:space="preserve" font-family="Helvetica" font-size="18.0" fill="#FFFFFF" transform="matrix(1.00, 0.00, -0.00, -1.00, 314.5, 184.0)">l</text><text xml:space="preserve" font-family="Helvetica" font-size="18.0" fill="#FFFFFF" transform="matrix(1.00, 0.00, -0.00, -1.00, 318.5, 184.0)">e</text><text xml:space="preserve" font-family="Helvetica" font-size="18.0" fill="#FFFFFF" transform="matrix(1.00, 0.00, -0.00, -1.00, 328.5, 184.0)">g</text><text xml:space="preserve" font-family="Helvetica" font-size="18.0" fill="#FFFFFF" transform="matrix(1.00, 0.00, -0.00, -1.00, 338.6, 184.0)">e</text><text xml:space="preserve" font-family="Helvetica" font-size="18.0" fill="#FFFFFF" transform="matrix(1.00, 0.00, -0.00, -1.00, 348.6, 184.0)"> </text><text xml:space="preserve" font-family="Helvetica" font-size="18.0" fill="#FFFFFF" transform="matrix(1.00, 0.00, -0.00, -1.00, 353.6, 184.0)">L</text><text xml:space="preserve" font-family="Helvetica" font-size="18.0" fill="#FFFFFF" transform="matrix(1.00, 0.00, -0.00, -1.00, 363.6, 184.0)">o</text><text xml:space="preserve" font-family="Helvetica" font-size="18.0" fill="#FFFFFF" transform="matrix(1.00, 0.00, -0.00, -1.00, 373.6, 184.0)">n</text><text xml:space="preserve" font-family="Helvetica" font-size="18.0" fill="#FFFFFF" transform="matrix(1.00, 0.00, -0.00, -1.00, 383.6, 184.0)">d</text><text xml:space="preserve" font-family="Helvetica" font-size="18.0" fill="#FFFFFF" transform="matrix(1.00, 0.00, -0.00, -1.00, 393.6, 184.0)">o</text><text xml:space="preserve" font-family="Helvetica" font-size="18.0" fill="#FFFFFF" transform="matrix(1.00, 0.00, -0.00, -1.00, 403.6, 184.0)">n</text><text xml:space="preserve" font-family="Helvetica" font-size="18.0" fill="#FFFFFF" transform="matrix(1.00, 0.00, -0.00, -1.00, 28.0, 142.0)">“</text><text xml:space="preserve" font-family="Helvetica" font-size="18.0" fill="#FFFFFF" transform="matrix(1.00, 0.00, -0.00, -1.00, 34.0, 142.0)">Q</text><text xml:space="preserve" font-family="Helvetica" font-size="18.0" fill="#FFFFFF" transform="matrix(1.00, 0.00, -0.00, -1.00, 48.0, 142.0)">u</text><text xml:space="preserve" font-family="Helvetica" font-size="18.0" fill="#FFFFFF" transform="matrix(1.00, 0.00, -0.00, -1.00, 58.0, 142.0)">a</text><text xml:space="preserve" font-family="Helvetica" font-size="18.0" fill="#FFFFFF" transform="matrix(1.00, 0.00, -0.00, -1.00, 68.0, 142.0)">n</text><text xml:space="preserve" font-family="Helvetica" font-size="18.0" fill="#FFFFFF" transform="matrix(1.00, 0.00, -0.00, -1.00, 78.0, 142.0)">t</text><text xml:space="preserve" font-family="Helvetica" font-size="18.0" fill="#FFFFFF" transform="matrix(1.00, 0.00, -0.00, -1.00, 83.0, 142.0)">u</text><text xml:space="preserve" font-family="Helvetica" font-size="18.0" fill="#FFFFFF" transform="matrix(1.00, 0.00, -0.00, -1.00, 93.0, 142.0)">m</text><text xml:space="preserve" font-family="Helvetica" font-size="18.0" fill="#FFFFFF" transform="matrix(1.00, 0.00, -0.00, -1.00, 108.0, 142.0)"> </text><text xml:space="preserve" font-family="Helvetica" font-size="18.0" fill="#FFFFFF" transform="matrix(1.00, 0.00, -0.00, -1.00, 113.0, 142.0)">s</text><text xml:space="preserve" font-family="Helvetica" font-size="18.0" fill="#FFFFFF" transform="matrix(1.00, 0.00, -0.00, -1.00, 122.0, 142.0)">y</text><text xml:space="preserve" font-family="Helvetica" font-size="18.0" fill="#FFFFFF" transform="matrix(1.00, 0.00, -0.00, -1.00, 131.0, 142.0)">s</text><text xml:space="preserve" font-family="Helvetica" font-size="18.0" fill="#FFFFFF" transform="matrix(1.00, 0.00, -0.00, -1.00, 140.0, 142.0)">t</text><text xml:space="preserve" font-family="Helvetica" font-size="18.0" fill="#FFFFFF" transform="matrix(1.00, 0.00, -0.00, -1.00, 145.0, 142.0)">e</text><text xml:space="preserve" font-family="Helvetica" font-size="18.0" fill="#FFFFFF" transform="matrix(1.00, 0.00, -0.00, -1.00, 155.0, 142.0)">m</text><text xml:space="preserve" font-family="Helvetica" font-size="18.0" fill="#FFFFFF" transform="matrix(1.00, 0.00, -0.00, -1.00, 170.0, 142.0)">s</text><text xml:space="preserve" font-family="Helvetica" font-size="18.0" fill="#FFFFFF" transform="matrix(1.00, 0.00, -0.00, -1.00, 179.0, 142.0)"> </text><text xml:space="preserve" font-family="Helvetica" font-size="18.0" fill="#FFFFFF" transform="matrix(1.00, 0.00, -0.00, -1.00, 184.0, 142.0)">o</text><text xml:space="preserve" font-family="Helvetica" font-size="18.0" fill="#FFFFFF" transform="matrix(1.00, 0.00, -0.00, -1.00, 194.1, 142.0)">u</text><text xml:space="preserve" font-family="Helvetica" font-size="18.0" fill="#FFFFFF" transform="matrix(1.00, 0.00, -0.00, -1.00, 204.1, 142.0)">t</text><text xml:space="preserve" font-family="Helvetica" font-size="18.0" fill="#FFFFFF" transform="matrix(1.00, 0.00, -0.00, -1.00, 209.1, 142.0)"> </text><text xml:space="preserve" font-family="Helvetica" font-size="18.0" fill="#FFFFFF" transform="matrix(1.00, 0.00, -0.00, -1.00, 214.1, 142.0)">o</text><text xml:space="preserve" font-family="Helvetica" font-size="18.0" fill="#FFFFFF" transform="matrix(1.00, 0.00, -0.00, -1.00, 224.1, 142.0)">f</text><text xml:space="preserve" font-family="Helvetica" font-size="18.0" fill="#FFFFFF" transform="matrix(1.00, 0.00, -0.00, -1.00, 229.1, 142.0)"> </text><text xml:space="preserve" font-family="Helvetica" font-size="18.0" fill="#FFFFFF" transform="matrix(1.00, 0.00, -0.00, -1.00, 234.1, 142.0)">e</text><text xml:space="preserve" font-family="Helvetica" font-size="18.0" fill="#FFFFFF" transform="matrix(1.00, 0.00, -0.00, -1.00, 244.1, 142.0)">q</text><text xml:space="preserve" font-family="Helvetica" font-size="18.0" fill="#FFFFFF" transform="matrix(1.00, 0.00, -0.00, -1.00, 254.1, 142.0)">u</text><text xml:space="preserve" font-family="Helvetica" font-size="18.0" fill="#FFFFFF" transform="matrix(1.00, 0.00, -0.00, -1.00, 264.1, 142.0)">i</text><text xml:space="preserve" font-family="Helvetica" font-size="18.0" fill="#FFFFFF" transform="matrix(1.00, 0.00, -0.00, -1.00, 268.1, 142.0)">l</text><text xml:space="preserve" font-family="Helvetica" font-size="18.0" fill="#FFFFFF" transform="matrix(1.00, 0.00, -0.00, -1.00, 272.1, 142.0)">i</text><text xml:space="preserve" font-family="Helvetica" font-size="18.0" fill="#FFFFFF" transform="matrix(1.00, 0.00, -0.00, -1.00, 276.1, 142.0)">b</text><text xml:space="preserve" font-family="Helvetica" font-size="18.0" fill="#FFFFFF" transform="matrix(1.00, 0.00, -0.00, -1.00, 286.1, 142.0)">r</text><text xml:space="preserve" font-family="Helvetica" font-size="18.0" fill="#FFFFFF" transform="matrix(1.00, 0.00, -0.00, -1.00, 292.1, 142.0)">i</text><text xml:space="preserve" font-family="Helvetica" font-size="18.0" fill="#FFFFFF" transform="matrix(1.00, 0.00, -0.00, -1.00, 296.1, 142.0)">u</text><text xml:space="preserve" font-family="Helvetica" font-size="18.0" fill="#FFFFFF" transform="matrix(1.00, 0.00, -0.00, -1.00, 306.1, 142.0)">m</text><text xml:space="preserve" font-family="Helvetica" font-size="18.0" fill="#FFFFFF" transform="matrix(1.00, 0.00, -0.00, -1.00, 321.1, 142.0)">”</text><text xml:space="preserve" font-family="Helvetica" font-size="18.0" fill="#FFFFFF" transform="matrix(1.00, 0.00, -0.00, -1.00, 28.0, 60.0)">D</text><text xml:space="preserve" font-family="Helvetica" font-size="18.0" fill="#FFFFFF" transform="matrix(1.00, 0.00, -0.00, -1.00, 41.0, 60.0)">a</text><text xml:space="preserve" font-family="Helvetica" font-size="18.0" fill="#FFFFFF" transform="matrix(1.00, 0.00, -0.00, -1.00, 51.0, 60.0)">t</text><text xml:space="preserve" font-family="Helvetica" font-size="18.0" fill="#FFFFFF" transform="matrix(1.00, 0.00, -0.00, -1.00, 56.0, 60.0)">a</text><text xml:space="preserve" font-family="Helvetica" font-size="18.0" fill="#FFFFFF" transform="matrix(1.00, 0.00, -0.00, -1.00, 66.0, 60.0)"> </text><text xml:space="preserve" font-family="Helvetica" font-size="18.0" fill="#FFFFFF" transform="matrix(1.00, 0.00, -0.00, -1.00, 71.0, 60.0)">S</text><text xml:space="preserve" font-family="Helvetica" font-size="18.0" fill="#FFFFFF" transform="matrix(1.00, 0.00, -0.00, -1.00, 83.0, 60.0)">c</text><text xml:space="preserve" font-family="Helvetica" font-size="18.0" fill="#FFFFFF" transform="matrix(1.00, 0.00, -0.00, -1.00, 92.0, 60.0)">i</text><text xml:space="preserve" font-family="Helvetica" font-size="18.0" fill="#FFFFFF" transform="matrix(1.00, 0.00, -0.00, -1.00, 96.0, 60.0)">e</text><text xml:space="preserve" font-family="Helvetica" font-size="18.0" fill="#FFFFFF" transform="matrix(1.00, 0.00, -0.00, -1.00, 106.0, 60.0)">n</text><text xml:space="preserve" font-family="Helvetica" font-size="18.0" fill="#FFFFFF" transform="matrix(1.00, 0.00, -0.00, -1.00, 116.1, 60.0)">c</text><text xml:space="preserve" font-family="Helvetica" font-size="18.0" fill="#FFFFFF" transform="matrix(1.00, 0.00, -0.00, -1.00, 125.1, 60.0)">e</text><text xml:space="preserve" font-family="Helvetica" font-size="18.0" fill="#FFFFFF" transform="matrix(1.00, 0.00, -0.00, -1.00, 135.1, 60.0)"> </text><text xml:space="preserve" font-family="Helvetica" font-size="18.0" fill="#FFFFFF" transform="matrix(1.00, 0.00, -0.00, -1.00, 140.1, 60.0)">I</text><text xml:space="preserve" font-family="Helvetica" font-size="18.0" fill="#FFFFFF" transform="matrix(1.00, 0.00, -0.00, -1.00, 145.1, 60.0)">n</text><text xml:space="preserve" font-family="Helvetica" font-size="18.0" fill="#FFFFFF" transform="matrix(1.00, 0.00, -0.00, -1.00, 155.1, 60.0)">t</text><text xml:space="preserve" font-family="Helvetica" font-size="18.0" fill="#FFFFFF" transform="matrix(1.00, 0.00, -0.00, -1.00, 160.1, 60.0)">e</text><text xml:space="preserve" font-family="Helvetica" font-size="18.0" fill="#FFFFFF" transform="matrix(1.00, 0.00, -0.00, -1.00, 170.1, 60.0)">r</text><text xml:space="preserve" font-family="Helvetica" font-size="18.0" fill="#FFFFFF" transform="matrix(1.00, 0.00, -0.00, -1.00, 176.1, 60.0)">n</text><text xml:space="preserve" font-family="Helvetica" font-size="18.0" fill="#FFFFFF" transform="matrix(1.00, 0.00, -0.00, -1.00, 186.1, 60.0)">s</text><text xml:space="preserve" font-family="Helvetica" font-size="18.0" fill="#FFFFFF" transform="matrix(1.00, 0.00, -0.00, -1.00, 195.1, 60.0)">h</text><text xml:space="preserve" font-family="Helvetica" font-size="18.0" fill="#FFFFFF" transform="matrix(1.00, 0.00, -0.00, -1.00, 205.1, 60.0)">i</text><text xml:space="preserve" font-family="Helvetica" font-size="18.0" fill="#FFFFFF" transform="matrix(1.00, 0.00, -0.00, -1.00, 209.1, 60.0)">p</text><text xml:space="preserve" font-family="Helvetica" font-size="18.0" fill="#FFFFFF" transform="matrix(1.00, 0.00, -0.00, -1.00, 219.1, 60.0)"> </text><text xml:space="preserve" font-family="Helvetica" font-size="18.0" fill="#FFFFFF" transform="matrix(1.00, 0.00, -0.00, -1.00, 224.1, 60.0)">a</text><text xml:space="preserve" font-family="Helvetica" font-size="18.0" fill="#FFFFFF" transform="matrix(1.00, 0.00, -0.00, -1.00, 234.1, 60.0)">t</text><text xml:space="preserve" font-family="Helvetica" font-size="18.0" fill="#FFFFFF" transform="matrix(1.00, 0.00, -0.00, -1.00, 239.1, 60.0)"> </text><text xml:space="preserve" font-family="Helvetica" font-size="18.0" fill="#FFFFFF" transform="matrix(1.00, 0.00, -0.00, -1.00, 244.1, 60.0)">C</text><text xml:space="preserve" font-family="Helvetica" font-size="18.0" fill="#FFFFFF" transform="matrix(1.00, 0.00, -0.00, -1.00, 257.1, 60.0)">y</text><text xml:space="preserve" font-family="Helvetica" font-size="18.0" fill="#FFFFFF" transform="matrix(1.00, 0.00, -0.00, -1.00, 266.1, 60.0)">t</text><text xml:space="preserve" font-family="Helvetica" font-size="18.0" fill="#FFFFFF" transform="matrix(1.00, 0.00, -0.00, -1.00, 271.1, 60.0)">o</text><text xml:space="preserve" font-family="Helvetica" font-size="18.0" fill="#FFFFFF" transform="matrix(1.00, 0.00, -0.00, -1.00, 281.2, 60.0)">r</text><text xml:space="preserve" font-family="Helvetica" font-size="18.0" fill="#FFFFFF" transform="matrix(1.00, 0.00, -0.00, -1.00, 287.2, 60.0)">a</text><text xml:space="preserve" font-family="Helvetica" font-size="18.0" fill="#FFFFFF" transform="matrix(1.00, 0.00, -0.00, -1.00, 297.2, 60.0)"> </text><text xml:space="preserve" font-family="Helvetica" font-size="18.0" fill="#FFFFFF" transform="matrix(1.00, 0.00, -0.00, -1.00, 302.2, 60.0)">L</text><text xml:space="preserve" font-family="Helvetica" font-size="18.0" fill="#FFFFFF" transform="matrix(1.00, 0.00, -0.00, -1.00, 312.2, 60.0)">t</text><text xml:space="preserve" font-family="Helvetica" font-size="18.0" fill="#FFFFFF" transform="matrix(1.00, 0.00, -0.00, -1.00, 317.2, 60.0)">d</text><text xml:space="preserve" font-family="Helvetica" font-size="18.0" fill="#FFFFFF" transform="matrix(1.00, 0.00, -0.00, -1.00, 327.2, 60.0)">:</text><text xml:space="preserve" font-family="Helvetica" font-size="18.0" fill="#FFFFFF" transform="matrix(1.00, 0.00, -0.00, -1.00, 28.0, 22.0)">“</text><text xml:space="preserve" font-family="Helvetica" font-size="18.0" fill="#FFFFFF" transform="matrix(1.00, 0.00, -0.00, -1.00, 34.0, 22.0)">S</text><text xml:space="preserve" font-family="Helvetica" font-size="18.0" fill="#FFFFFF" transform="matrix(1.00, 0.00, -0.00, -1.00, 46.0, 22.0)">t</text><text xml:space="preserve" font-family="Helvetica" font-size="18.0" fill="#FFFFFF" transform="matrix(1.00, 0.00, -0.00, -1.00, 51.0, 22.0)">r</text><text xml:space="preserve" font-family="Helvetica" font-size="18.0" fill="#FFFFFF" transform="matrix(1.00, 0.00, -0.00, -1.00, 57.0, 22.0)">e</text><text xml:space="preserve" font-family="Helvetica" font-size="18.0" fill="#FFFFFF" transform="matrix(1.00, 0.00, -0.00, -1.00, 67.0, 22.0)">e</text><text xml:space="preserve" font-family="Helvetica" font-size="18.0" fill="#FFFFFF" transform="matrix(1.00, 0.00, -0.00, -1.00, 77.0, 22.0)">t</text><text xml:space="preserve" font-family="Helvetica" font-size="18.0" fill="#FFFFFF" transform="matrix(1.00, 0.00, -0.00, -1.00, 82.0, 22.0)"> </text><text xml:space="preserve" font-family="Helvetica" font-size="18.0" fill="#FFFFFF" transform="matrix(1.00, 0.00, -0.00, -1.00, 87.0, 22.0)">a</text><text xml:space="preserve" font-family="Helvetica" font-size="18.0" fill="#FFFFFF" transform="matrix(1.00, 0.00, -0.00, -1.00, 97.0, 22.0)">d</text><text xml:space="preserve" font-family="Helvetica" font-size="18.0" fill="#FFFFFF" transform="matrix(1.00, 0.00, -0.00, -1.00, 107.0, 22.0)">d</text><text xml:space="preserve" font-family="Helvetica" font-size="18.0" fill="#FFFFFF" transform="matrix(1.00, 0.00, -0.00, -1.00, 117.1, 22.0)">r</text><text xml:space="preserve" font-family="Helvetica" font-size="18.0" fill="#FFFFFF" transform="matrix(1.00, 0.00, -0.00, -1.00, 123.1, 22.0)">e</text><text xml:space="preserve" font-family="Helvetica" font-size="18.0" fill="#FFFFFF" transform="matrix(1.00, 0.00, -0.00, -1.00, 133.1, 22.0)">s</text><text xml:space="preserve" font-family="Helvetica" font-size="18.0" fill="#FFFFFF" transform="matrix(1.00, 0.00, -0.00, -1.00, 142.1, 22.0)">s</text><text xml:space="preserve" font-family="Helvetica" font-size="18.0" fill="#FFFFFF" transform="matrix(1.00, 0.00, -0.00, -1.00, 151.1, 22.0)"> </text><text xml:space="preserve" font-family="Helvetica" font-size="18.0" fill="#FFFFFF" transform="matrix(1.00, 0.00, -0.00, -1.00, 156.1, 22.0)">r</text><text xml:space="preserve" font-family="Helvetica" font-size="18.0" fill="#FFFFFF" transform="matrix(1.00, 0.00, -0.00, -1.00, 162.1, 22.0)">e</text><text xml:space="preserve" font-family="Helvetica" font-size="18.0" fill="#FFFFFF" transform="matrix(1.00, 0.00, -0.00, -1.00, 172.1, 22.0)">c</text><text xml:space="preserve" font-family="Helvetica" font-size="18.0" fill="#FFFFFF" transform="matrix(1.00, 0.00, -0.00, -1.00, 181.1, 22.0)">o</text><text xml:space="preserve" font-family="Helvetica" font-size="18.0" fill="#FFFFFF" transform="matrix(1.00, 0.00, -0.00, -1.00, 191.1, 22.0)">g</text><text xml:space="preserve" font-family="Helvetica" font-size="18.0" fill="#FFFFFF" transform="matrix(1.00, 0.00, -0.00, -1.00, 201.1, 22.0)">n</text><text xml:space="preserve" font-family="Helvetica" font-size="18.0" fill="#FFFFFF" transform="matrix(1.00, 0.00, -0.00, -1.00, 211.1, 22.0)">i</text><text xml:space="preserve" font-family="Helvetica" font-size="18.0" fill="#FFFFFF" transform="matrix(1.00, 0.00, -0.00, -1.00, 215.1, 22.0)">t</text><text xml:space="preserve" font-family="Helvetica" font-size="18.0" fill="#FFFFFF" transform="matrix(1.00, 0.00, -0.00, -1.00, 220.1, 22.0)">i</text><text xml:space="preserve" font-family="Helvetica" font-size="18.0" fill="#FFFFFF" transform="matrix(1.00, 0.00, -0.00, -1.00, 224.1, 22.0)">o</text><text xml:space="preserve" font-family="Helvetica" font-size="18.0" fill="#FFFFFF" transform="matrix(1.00, 0.00, -0.00, -1.00, 234.1, 22.0)">n</text><text xml:space="preserve" font-family="Helvetica" font-size="18.0" fill="#FFFFFF" transform="matrix(1.00, 0.00, -0.00, -1.00, 244.1, 22.0)">”</text><image xlink:href="../../B6951FCA-D3D1-4974-B89C-B56DD82CCBAC/assets/4162193217C42DE3B348187338413455.jpeg" width="233.00" height="219.00" transform="matrix(1.00, 0.00, -0.00, -1.00, 487.0, 219.0)"></image><image xlink:href="../../B6951FCA-D3D1-4974-B89C-B56DD82CCBAC/assets/BAC4B8E1EA92C6BDC14B448BD4E93DA9.jpeg" width="336.00" height="188.00" transform="matrix(1.00, 0.00, -0.00, -1.00, 386.0, 405.0)"></image></g></svg>